<svg width="33" height="27" viewBox="0 0 33 27" fill="none" xmlns="http://www.w3.org/2000/svg">
<path d="M29.6216 6.97263C29.6417 7.25471 29.6417 7.5368 29.6417 7.82148C29.6417 16.4958 22.8312 26.5 10.3779 26.5V26.4948C6.69921 26.5 3.09689 25.4783 0 23.5518C0.534918 23.6142 1.07252 23.6454 1.61146 23.6467C4.66009 23.6493 7.62157 22.6574 10.02 20.8311C7.12285 20.7778 4.58233 18.9462 3.69482 16.2722C4.70969 16.462 5.75539 16.423 6.75149 16.1592C3.59293 15.5404 1.32054 12.8496 1.32054 9.72456V9.64136C2.26167 10.1496 3.31542 10.4317 4.3933 10.4629C1.4184 8.53513 0.501402 4.69778 2.29787 1.69757C5.73528 5.79881 10.8069 8.29205 16.2513 8.55593C15.7057 6.27588 16.4511 3.88663 18.21 2.28383C20.9369 -0.201615 25.2256 -0.0742226 27.7889 2.56851C29.3052 2.27863 30.7584 1.73916 32.0884 0.974811C31.5829 2.49442 30.5252 3.78523 29.1121 4.60548C30.4541 4.45209 31.7653 4.10371 33 3.57205C32.091 4.89276 30.9461 6.04319 29.6216 6.97263Z" fill="#C0C7CE"/>
</svg>
