<svg width="44" height="24" viewBox="0 0 44 24" fill="none" xmlns="http://www.w3.org/2000/svg">
<path fill-rule="evenodd" clip-rule="evenodd" d="M16.7626 4.88888C16.7626 2.18883 18.9514 0 21.6514 0C24.3515 0 26.5403 2.18883 26.5403 4.88888C26.5403 7.58893 24.3515 9.77776 21.6514 9.77776C18.9514 9.77776 16.7626 7.58893 16.7626 4.88888ZM14.0231 14.4916C15.7769 12.1706 18.5393 10.6666 21.6514 10.6666C24.7635 10.6666 27.526 12.1706 29.2798 14.4916L29.3036 14.5232C29.4544 14.7226 29.6161 14.9364 29.7316 15.1427C29.8715 15.3924 29.9752 15.6812 29.9687 16.0325C29.9636 16.3148 29.878 16.5792 29.7741 16.7879C29.6702 16.9966 29.5109 17.2242 29.2887 17.3985C28.9925 17.631 28.6699 17.7133 28.3833 17.7477C28.1319 17.7779 27.834 17.7778 27.5344 17.7777L27.4939 17.7777H15.809L15.7685 17.7777C15.4689 17.7778 15.171 17.7779 14.9196 17.7477C14.633 17.7133 14.3104 17.631 14.0142 17.3985C13.792 17.2242 13.6327 16.9966 13.5288 16.7879C13.4249 16.5792 13.3393 16.3148 13.3342 16.0325C13.3277 15.6812 13.4314 15.3924 13.5713 15.1427C13.6868 14.9365 13.8485 14.7227 13.9992 14.5233L13.9993 14.5232L13.9993 14.5232L14.0231 14.4916ZM3.42868 11.1111C3.42868 8.41109 5.61751 6.22227 8.31756 6.22227C11.0176 6.22227 13.2064 8.41109 13.2064 11.1111C13.2064 13.8112 11.0176 16 8.31756 16C5.61751 16 3.42868 13.8112 3.42868 11.1111ZM0.689259 20.7139C2.443 18.3929 5.20546 16.8889 8.31756 16.8889C11.4297 16.8889 14.1921 18.3929 15.9459 20.7139L15.9697 20.7455C16.1205 20.9449 16.2822 21.1587 16.3978 21.365C16.5376 21.6146 16.6413 21.9035 16.6348 22.2547C16.6297 22.5371 16.5441 22.8014 16.4402 23.0101C16.3363 23.2189 16.177 23.4465 15.9549 23.6208C15.6586 23.8533 15.336 23.9356 15.0494 23.97C14.798 24.0001 14.5001 24.0001 14.2005 24L14.16 24H2.47511L2.43461 24C2.13506 24.0001 1.83712 24.0001 1.5857 23.97C1.29913 23.9356 0.97655 23.8533 0.680262 23.6208C0.45809 23.4465 0.298777 23.2189 0.194888 23.0101C0.0909979 22.8014 0.00544691 22.5371 0.00028304 22.2547C-0.00614095 21.9035 0.0975107 21.6146 0.237364 21.365C0.352907 21.1587 0.51459 20.9449 0.665379 20.7455L0.689259 20.7139ZM34.9843 6.22227C32.2843 6.22227 30.0954 8.41109 30.0954 11.1111C30.0954 13.8112 32.2843 16 34.9843 16C37.6844 16 39.8732 13.8112 39.8732 11.1111C39.8732 8.41109 37.6844 6.22227 34.9843 6.22227ZM34.9843 16.8889C31.8722 16.8889 29.1098 18.3929 27.356 20.7139L27.3321 20.7455C27.1813 20.9449 27.0197 21.1587 26.9041 21.365C26.7643 21.6146 26.6606 21.9035 26.667 22.2547C26.6722 22.5371 26.7578 22.8014 26.8616 23.0101C26.9655 23.2189 27.1248 23.4465 27.347 23.6208C27.6433 23.8533 27.9659 23.9356 28.2525 23.97C28.5039 24.0001 28.8018 24.0001 29.1014 24L29.1419 24H40.8268L40.8673 24C41.1668 24.0001 41.4648 24.0001 41.7162 23.97C42.0027 23.9356 42.3253 23.8533 42.6216 23.6208C42.8438 23.4465 43.0031 23.2189 43.107 23.0101C43.2109 22.8014 43.2964 22.5371 43.3016 22.2547C43.308 21.9035 43.2044 21.6146 43.0645 21.365C42.949 21.1588 42.7874 20.945 42.6367 20.7457L42.6366 20.7456L42.6366 20.7456L42.6365 20.7455L42.6126 20.7139C40.8589 18.3929 38.0964 16.8889 34.9843 16.8889Z" fill="url(#paint0_linear_34_2773)"/>
<defs>
<linearGradient id="paint0_linear_34_2773" x1="16.0029" y1="1.63076e-07" x2="32.8708" y2="41.4931" gradientUnits="userSpaceOnUse">
<stop stop-color="#A73EFF"/>
<stop offset="0.0666667" stop-color="#A63EFF"/>
<stop offset="0.133333" stop-color="#A33CFD"/>
<stop offset="0.2" stop-color="#9E3AFB"/>
<stop offset="0.266667" stop-color="#9636F8"/>
<stop offset="0.333333" stop-color="#8D32F4"/>
<stop offset="0.4" stop-color="#812CF0"/>
<stop offset="0.466667" stop-color="#7426EB"/>
<stop offset="0.533333" stop-color="#6720E6"/>
<stop offset="0.6" stop-color="#5B1AE0"/>
<stop offset="0.666667" stop-color="#4F15DC"/>
<stop offset="0.733333" stop-color="#4611D8"/>
<stop offset="0.8" stop-color="#3E0DD5"/>
<stop offset="0.866667" stop-color="#390BD3"/>
<stop offset="0.933333" stop-color="#3609D2"/>
<stop offset="1" stop-color="#3509D1"/>
</linearGradient>
</defs>
</svg>
