<svg fill="none" height="44" viewBox="0 0 195 44" width="195" xmlns="http://www.w3.org/2000/svg"><path d="m102.573 26.5833c-4.9334 0-8.8427 3.7584-8.8427 8.7084s4.0023 8.7083 8.8427 8.7083c4.933 0 8.842-3.85 8.842-8.7083 0-4.95-3.909-8.7084-8.842-8.7084zm0 3.4834c2.978 0 5.212 2.2 5.212 5.225s-2.327 5.225-5.212 5.225c-2.9788 0-5.2127-2.2-5.2127-5.225-.093-3.025 2.2339-5.225 5.2127-5.225zm73.625 8.3416v-7.975h4.189v-3.4833h-4.189v-4.675l-3.63 1.1v3.575h-3.072v3.4833h3.072v7.975c0 4.3084 2.234 5.8667 7.819 5.1334v-3.2084c-2.793.1834-4.189.1834-4.189-1.925zm18.802 1.8334h-8.284l8.284-9.8084v-3.3h-12.845v3.3h8.284l-8.284 9.8084v3.3916h12.845zm-73.346-13.475v3.85c-2.42-.1834-5.213.9166-5.213 4.675v8.3416h-3.63v-16.5916h3.63v2.75c1.024-2.2 3.072-3.025 5.213-3.025zm8.749-.1834c-4.933 0-8.842 3.7584-8.842 8.7084s4.002 8.7083 8.842 8.7083c4.933 0 8.843-3.85 8.843-8.7083.093-4.95-3.816-8.7084-8.843-8.7084zm0 3.4834c2.979 0 5.213 2.2 5.213 5.225s-2.327 5.225-5.213 5.225c-2.978 0-5.212-2.2-5.212-5.225s2.327-5.225 5.212-5.225zm32.857-3.025-5.305 16.5916h-3.537l-3.537-11.1833-3.537 11.1833h-3.537l-5.306-16.5916h3.816l3.258 11.4583 3.537-11.4583h3.444l3.537 11.4583 3.258-11.4583zm4.84 0h-3.63v16.5916h3.63zm-118.1168-25.9417v6.875c-1.3961-1.00833-3.3508-1.83333-5.2124-1.83333-5.2124 0-9.4009 4.49163-8.8424 9.71663.4653 4.0334 3.8162 7.3334 7.9116 7.7917 2.327.1833 4.4678-.4583 6.1432-1.65v1.2833h3.7232v-23.2833zm-.093 13.8417c0 3.2083-2.9786 5.6833-6.3294 4.95-1.9546-.3667-3.537-1.925-4.0024-3.9417-.6515-3.3 1.9547-6.23333 5.2124-6.23333 2.7924 0 5.1194 2.29163 5.1194 5.22503zm-35.8354-8.25003v1.1c-1.3961-1.00834-3.2577-1.65-5.11929-1.65-5.21241 0-9.400952 4.49163-8.8424789 9.71663.4653939 4.0334 3.8162289 7.3334 7.9116989 7.7917 2.32697.1833 4.46777-.4583 6.14317-1.65v1.2833h3.7232v-16.59163zm0 8.25003c0 3.2083-2.9785 5.6833-6.32931 4.95-1.95465-.3667-3.53699-1.925-4.00239-3.9417-.65155-3.3 1.95466-6.23333 5.21241-6.23333 2.79239 0 5.11929 2.29163 5.11929 5.22503zm14.0549-8.70837c-2.3269 0-4.0954.825-5.2124 2.56667v-2.2h-3.63v16.5917h3.63v-8.8917c0-3.3917 1.8616-4.76667 4.2817-4.76667 2.3269 0 3.7231 1.28337 3.7231 3.84997v9.8084h3.6301v-10.0834c.0931-4.3083-2.6062-6.87497-6.4225-6.87497zm67.6683 12.09997c-.8377 1.1917-2.327 2.0167-4.3747 2.0167-2.6993 0-4.8401-1.2833-5.3986-3.9417h13.4034c.0931-.4583.093-1.0083.093-1.4666 0-4.7667-3.4439-8.70837-8.4701-8.70837-5.3055 0-8.8425 3.84997-8.8425 8.70837 0 4.95 3.6301 8.7083 9.1217 8.7083 3.2578 0 5.864-1.375 7.3532-3.575zm-4.6539-8.79997c2.2338 0 4.2816 1.19167 4.84 4.03337h-9.9594c.5585-2.475 2.4201-4.03337 5.1194-4.03337zm46.2599 10.90837c2.048 0 3.537-.9167 4.375-2.0167l2.978 1.7417c-1.582 2.2916-4.095 3.575-7.353 3.575-5.585 0-9.122-3.7584-9.122-8.7084s3.631-8.7083 8.843-8.7083c5.026 0 8.47 3.9417 8.47 8.7083 0 .1834 0 .4584-.093.7334 0 .275-.093.4583-.093.7333h-13.403c.558 2.5667 2.699 3.9417 5.398 3.9417zm4.468-6.875c-.465-2.8417-2.606-4.03337-4.84-4.03337-2.699 0-4.561 1.55837-5.119 4.03337zm26.248 9.7166h-3.63v-3.2083h3.63zm-20.756 0h3.63v-8.8916c0-3.3917 1.861-4.7667 4.281-4.7667 2.234 0 3.723 1.375 3.723 3.85v9.7167h3.631v-10.175c0-4.30837-2.7-6.78337-6.423-6.78337-2.327 0-4.095.825-5.212 2.56667v-2.10833h-3.63zm-43.003-12.0083c0-1.1917 1.117-1.74167 2.42-1.74167s2.42.54997 3.072 1.64997l3.165-1.5583c-1.21-2.10833-3.444-3.39167-6.237-3.39167-3.444 0-6.143 1.925-6.143 5.04167 0 3.4833 2.979 4.3083 5.585 5.0417h.093c.093 0 .186.0916.279.0916 1.769.55 3.072.9167 3.072 2.1084 0 1.2833-1.21 1.8333-2.886 1.8333-1.582 0-2.885-.6417-3.537-1.8333l-3.2575 1.5583c1.1165 2.2 3.5375 3.575 6.7015 3.575 3.63 0 6.609-1.8333 6.609-5.1333 0-3.575-3.165-4.4917-5.678-5.1334-1.675-.4583-3.258-.9166-3.258-2.1083zm14.055 0c0-1.1917 1.117-1.74167 2.42-1.74167s2.42.54997 3.165 1.74167l3.165-1.55833c-1.21-2.10834-3.537-3.39167-6.237-3.39167-3.444 0-6.143 1.925-6.143 5.0417 0 3.4833 2.979 4.3083 5.585 5.0416h.279c1.675.55 3.165 1.0084 3.165 2.2 0 1.2834-1.303 1.8334-2.886 1.8334-1.675 0-2.885-.6417-3.537-1.8334l-3.257 1.5584c1.116 2.2 3.443 3.575 6.701 3.575 3.723 0 6.609-1.8334 6.609-5.1334 0-3.575-2.979-4.4-5.585-5.1333h-.093c-.186 0-.279-.0917-.465-.0917-1.583-.55-2.886-.9166-2.886-2.1083zm-54.3579-1.0083v-3.85003c-2.1408 0-4.1885.825-5.2124 3.025v-2.75h-3.63v16.59163h3.63v-8.3416c0-3.7584 2.7924-4.8584 5.2124-4.675zm16.6611 9.8083v9.075c1.117-1.7417 2.8855-2.5667 5.2125-2.5667 3.7231 0 6.4224 2.475 6.4224 6.7834v10.2666h-3.6301v-9.8083c0-2.475-1.4892-3.85-3.7231-3.85-2.4201 0-4.2817 1.375-4.2817 4.7667v8.8916h-3.63v-20.625c-1.117.4584-2.327.7334-3.7232.7334-5.5847 0-9.1217-3.7584-9.1217-8.7084s3.6301-8.7083 8.8425-8.7083c5.0262 0 8.4701 3.9417 8.4701 8.7083 0 .1834 0 .4584-.093.7334 0 .275-.0931.4583-.0931.7333h-13.4034c.5585 2.5667 2.6993 3.9417 5.3986 3.9417 1.5824 0 2.7924-.55 3.7232-1.2834.2792-.1833.4654-.4583.6515-.7333zm-2.8854-6.5083c-.5585-2.8417-2.6062-4.03337-4.8401-4.03337-2.6993 0-4.5609 1.55837-5.0263 4.03337z" fill="#394857"/></svg>