<svg width="162" height="38" viewBox="0 0 162 38" fill="none" xmlns="http://www.w3.org/2000/svg">
<g clip-path="url(#clip0_29_2481)">
<path fill-rule="evenodd" clip-rule="evenodd" d="M12.8359 7.9711V12.4231C16.235 12.4231 19.4949 11.1143 21.8984 8.78449C24.3019 6.4547 25.6522 3.29482 25.6522 0H21.0541C21.0527 2.11278 20.1866 4.13871 18.6458 5.63314C17.1051 7.12758 15.0156 7.96841 12.8359 7.9711ZM12.8346 32.8099C10.655 32.8099 8.56471 31.9706 7.02352 30.4767C5.48232 28.9828 4.61649 26.9566 4.61649 24.8439C4.61649 22.7311 5.48232 20.705 7.02352 19.211C8.56471 17.7171 10.655 16.8778 12.8346 16.8778V12.4258C11.1515 12.4235 9.48449 12.7425 7.92863 13.3647C6.37277 13.9868 4.95856 14.9 3.76676 16.0519C2.57496 17.2038 1.6289 18.5721 0.982601 20.0784C0.336301 21.5848 0.00241745 23.1998 1.3079e-05 24.8312C-0.00239129 26.4626 0.326731 28.0785 0.968588 29.5867C1.61045 31.0948 2.55247 32.4656 3.74087 33.6209C4.92927 34.7761 6.34078 35.6932 7.8948 36.3196C9.44882 36.9461 11.1149 37.2698 12.798 37.2721H12.8346V32.8099ZM12.8359 20.4556V24.9406C16.258 24.9366 19.5388 23.6171 21.9586 21.2715C24.3784 18.9259 25.7396 15.7458 25.7438 12.4287H21.1168C21.1141 14.5567 20.2407 16.5969 18.6884 18.1016C17.136 19.6064 15.0313 20.4529 12.8359 20.4556ZM12.8359 37.262V32.81C15.0156 32.8073 17.1051 31.9664 18.6458 30.472C20.1866 28.9776 21.0527 26.9516 21.0541 24.8389H25.6522C25.6522 28.1337 24.3019 31.2936 21.8984 33.6234C19.4949 35.9532 16.235 37.262 12.8359 37.262ZM25.7266 12.4231V7.9711C27.9067 7.96908 29.9968 7.12854 31.5381 5.63404C33.0794 4.13953 33.9459 2.11321 33.9473 0H38.5428C38.5428 3.29482 37.1926 6.4547 34.789 8.78449C32.3855 11.1143 29.1257 12.4231 25.7266 12.4231Z" fill="#C0C7CE"/>
<path d="M59.9453 18.6016H62.3124L62.8695 19.8135C63.1653 19.5511 63.4929 19.3247 63.8451 19.1391C64.2121 18.957 64.5934 18.8036 64.9855 18.6802C65.4719 18.5315 65.9795 18.4587 66.4895 18.4647C67.2774 18.4603 68.057 18.6203 68.7755 18.9337C69.4962 19.2454 70.1447 19.6946 70.6822 20.2546C71.2411 20.8418 71.6843 21.5232 71.99 22.2652C72.6372 23.8972 72.6372 25.7038 71.99 27.3358C71.685 28.0781 71.2417 28.7596 70.6822 29.3464C70.1446 29.9069 69.4961 30.357 68.7755 30.6698C68.0576 30.9825 67.2791 31.1433 66.4921 31.1414C66.0158 31.1501 65.5411 31.0868 65.0849 30.9538C64.7266 30.8431 64.3769 30.7075 64.0387 30.5481C63.7172 30.3758 63.4178 30.1673 63.1468 29.927V35.3247H59.9453V18.6016ZM66.071 28.1826C66.4965 28.1923 66.9195 28.1157 67.3127 27.9576C67.7059 27.7996 68.0607 27.5636 68.3544 27.2648C68.9699 26.653 69.2768 25.8341 69.275 24.8081C69.2972 24.3599 69.2273 23.9119 69.0692 23.4901C68.9112 23.0683 68.6682 22.6813 68.3544 22.3514C68.0549 22.061 67.6993 21.8306 67.308 21.6735C66.9166 21.5163 66.4972 21.4354 66.0736 21.4354C65.65 21.4354 65.2305 21.5163 64.8392 21.6735C64.4479 21.8306 64.0923 22.061 63.7928 22.3514C63.1808 22.9649 62.8747 23.7838 62.8747 24.8081C62.8747 25.8324 63.1808 26.6513 63.7928 27.2648C64.0864 27.5636 64.4413 27.7996 64.8345 27.9576C65.2277 28.1157 65.6506 28.1923 66.0762 28.1826H66.071Z" fill="#C0C7CE"/>
<path d="M80.1341 31.1524C79.5383 31.1593 78.9467 31.0543 78.3921 30.8431C77.8739 30.6423 77.4078 30.3332 77.0268 29.938C76.6391 29.5301 76.3371 29.0531 76.1375 28.5334C75.9146 27.9459 75.8055 27.3236 75.8158 26.6978V21.4344H73.8672V18.8712H74.7016C75.7234 18.8712 76.2343 18.376 76.2343 17.3855V15.6387H79.0199V18.6101H81.8028V21.4421H79.0199V26.571C79.0023 26.7844 79.0283 26.9991 79.0964 27.2028C79.1645 27.4065 79.2733 27.5952 79.4166 27.7581C79.5599 27.921 79.7349 28.055 79.9316 28.1523C80.1283 28.2497 80.3429 28.3085 80.563 28.3255C80.6501 28.3328 80.7376 28.3328 80.8246 28.3255C80.9448 28.3315 81.0653 28.3315 81.1856 28.3255C81.2737 28.3187 81.3612 28.3051 81.4471 28.2849C81.5239 28.2655 81.5984 28.2383 81.6694 28.2038V30.9039C81.526 30.9624 81.3771 31.0074 81.2248 31.0383C80.8686 31.1259 80.5014 31.1644 80.1341 31.1524Z" fill="#C0C7CE"/>
<path d="M86.12 17.116C85.6892 17.1266 85.268 16.9913 84.9289 16.7336C84.5898 16.4758 84.3539 16.1116 84.2617 15.7035C84.1695 15.2955 84.2268 14.869 84.4238 14.4975C84.6207 14.1259 84.945 13.8325 85.341 13.6675C85.7369 13.5026 86.1798 13.4765 86.5934 13.5937C87.0071 13.7109 87.3657 13.964 87.6077 14.3097C87.8497 14.6554 87.9599 15.0719 87.9194 15.4878C87.879 15.9037 87.6903 16.293 87.3859 16.5887C87.2233 16.7558 87.0271 16.8888 86.8093 16.9795C86.5916 17.0702 86.357 17.1166 86.12 17.116ZM84.4487 18.6017H87.6501V31.0249H84.4487V18.6017Z" fill="#C0C7CE"/>
<path d="M90.7109 18.6018H93.078L93.6351 19.8137C93.8976 19.56 94.1869 19.334 94.4983 19.1392C94.8005 18.9584 95.1192 18.8048 95.4503 18.6804C95.8503 18.5327 96.2753 18.4596 96.7032 18.4649C97.2715 18.4509 97.8378 18.5368 98.3745 18.7184C98.7756 18.8599 99.1584 19.0462 99.5149 19.2736C99.8344 19.4915 100.109 19.7659 100.323 20.0824C100.629 19.7706 100.975 19.4987 101.354 19.2736C101.735 19.0536 102.136 18.8678 102.552 18.7184C103.042 18.5447 103.56 18.4587 104.082 18.4649C105.476 18.4649 106.587 18.8984 107.424 19.7604C108.261 20.6224 108.677 21.9028 108.677 23.5938V31.0173H105.471V23.8651C105.506 23.2172 105.281 22.5812 104.843 22.0904C104.677 21.904 104.475 21.7512 104.248 21.6407C104.022 21.5301 103.775 21.464 103.521 21.4461C103.268 21.4282 103.014 21.4589 102.773 21.5364C102.532 21.6139 102.309 21.7366 102.117 21.8977C102.047 21.9581 101.981 22.0224 101.919 22.0904C101.481 22.5809 101.256 23.2173 101.294 23.8651V31.0173H98.0895V23.8651C98.1266 23.2173 97.9024 22.5809 97.4643 22.0904C97.2984 21.904 97.0961 21.7511 96.8691 21.6405C96.6421 21.5299 96.3949 21.4638 96.1415 21.4459C95.8882 21.428 95.6336 21.4587 95.3925 21.5362C95.1514 21.6137 94.9284 21.7366 94.7363 21.8977C94.6664 21.9574 94.6008 22.0218 94.5401 22.0904C94.1023 22.5812 93.8774 23.2172 93.9124 23.8651V31.0173H90.7109V18.6018Z" fill="#C0C7CE"/>
<path d="M113.268 17.1154C112.836 17.1264 112.413 16.9912 112.073 16.7328C111.732 16.4745 111.495 16.1093 111.403 15.6999C111.31 15.2906 111.367 14.8628 111.565 14.4899C111.762 14.1171 112.088 13.8227 112.485 13.6572C112.882 13.4917 113.326 13.4656 113.741 13.5833C114.156 13.701 114.516 13.9551 114.758 14.302C115.001 14.6489 115.111 15.0669 115.07 15.4841C115.029 15.9013 114.84 16.2917 114.534 16.588C114.371 16.7551 114.175 16.8881 113.957 16.9788C113.74 17.0695 113.505 17.116 113.268 17.1154ZM111.597 18.6011H114.806V31.0242H111.597V18.6011Z" fill="#C0C7CE"/>
<path d="M117.16 28.4513L122.729 21.5704H117.16V18.6016H126.767V21.1648L121.204 28.0609H127.05V31.0298H117.16V28.4513Z" fill="#C0C7CE"/>
<path d="M135.131 31.1517C134.282 31.1548 133.442 30.9819 132.667 30.6447C131.906 30.3199 131.216 29.8569 130.635 29.2806C130.046 28.6997 129.573 28.018 129.241 27.2701C128.901 26.4884 128.727 25.6488 128.727 24.8007C128.727 23.9526 128.901 23.113 129.241 22.3313C129.573 21.5834 130.046 20.9017 130.635 20.3208C131.217 19.7453 131.906 19.2824 132.667 18.9568C133.428 18.6348 134.248 18.4652 135.078 18.4582C135.908 18.4513 136.731 18.607 137.498 18.9162C138.23 19.2176 138.893 19.6581 139.446 20.2118C140.018 20.7926 140.467 21.4754 140.77 22.2223C141.102 23.0434 141.267 23.9189 141.256 24.8007C141.257 24.9406 141.248 25.0803 141.23 25.219C141.209 25.3534 141.191 25.4853 141.173 25.612C141.154 25.7388 141.136 25.8909 141.118 26.0151H132.207C132.345 26.6127 132.677 27.1517 133.153 27.5541C133.71 27.9928 134.415 28.2143 135.131 28.1752C135.493 28.1826 135.855 28.1373 136.203 28.0409C136.462 27.9625 136.71 27.8535 136.941 27.7163C137.151 27.5824 137.339 27.4182 137.498 27.2296H140.841C140.655 27.7304 140.397 28.2033 140.074 28.6341C139.724 29.1145 139.301 29.5417 138.821 29.9018C138.312 30.2793 137.749 30.5841 137.15 30.8069C136.505 31.0413 135.82 31.1582 135.131 31.1517ZM138.194 23.8652C138.061 23.1718 137.682 22.5453 137.122 22.0944C136.563 21.6435 135.858 21.3966 135.131 21.3966C134.403 21.3966 133.699 21.6435 133.139 22.0944C132.58 22.5453 132.201 23.1718 132.068 23.8652H138.194Z" fill="#C0C7CE"/>
<path d="M143.621 14.0122H146.823V31.0167H143.621V14.0122Z" fill="#C0C7CE"/>
<path d="M151.686 35.4717C151.539 35.4717 151.395 35.4666 151.254 35.4565C151.137 35.4505 151.021 35.4369 150.906 35.4159C150.793 35.4027 150.681 35.3754 150.574 35.3348V32.7716C151.155 32.8087 151.731 32.6462 152.201 32.3127C152.588 32.0012 152.889 31.6024 153.08 31.1515L153.357 30.4771L148.484 18.6016H151.827L155.029 26.6969L157.963 18.6016H161.306C160.396 20.8682 159.569 22.9192 158.826 24.7548C158.51 25.5458 158.199 26.3217 157.893 27.0747C157.587 27.8276 157.315 28.5198 157.071 29.141C156.828 29.7621 156.627 30.2793 156.459 30.6926C156.292 31.1058 156.198 31.3492 156.153 31.4228C155.884 32.0663 155.573 32.6922 155.219 33.2964C154.955 33.7591 154.622 34.1819 154.231 34.5514C153.905 34.8598 153.517 35.099 153.09 35.2536C152.639 35.4057 152.164 35.4795 151.686 35.4717Z" fill="#C0C7CE"/>
<path d="M48.0864 12.4258C46.1765 12.4258 44.3094 12.9748 42.7214 14.0033C41.1334 15.0318 39.8957 16.4937 39.1648 18.2041C38.4339 19.9145 38.2426 21.7966 38.6152 23.6124C38.9878 25.4281 39.9076 27.096 41.2581 28.4051C42.6086 29.7142 44.3292 30.6057 46.2024 30.9668C48.0757 31.328 50.0173 31.1427 51.7818 30.4342C53.5463 29.7257 55.0545 28.526 56.1156 26.9866C57.1767 25.4473 57.743 23.6376 57.743 21.7862C57.7434 20.5569 57.4938 19.3396 57.0087 18.2038C56.5235 17.0679 55.8122 16.0359 54.9154 15.1667C54.0187 14.2974 52.954 13.6079 51.7822 13.1376C50.6105 12.6673 49.3546 12.4254 48.0864 12.4258ZM48.0864 27.8913C46.8378 27.9058 45.613 27.5609 44.5668 26.9002C43.5207 26.2395 42.7003 25.2927 42.2096 24.1798C41.7189 23.0668 41.5799 21.8378 41.8103 20.6483C42.0407 19.4587 42.63 18.3622 43.5037 17.4975C44.3774 16.6329 45.4962 16.039 46.7183 15.791C47.9404 15.5431 49.211 15.6522 50.3691 16.1046C51.5272 16.5571 52.5207 17.3324 53.2239 18.3326C53.9271 19.3327 54.3083 20.5126 54.3193 21.7229V21.7938C54.3248 23.4037 53.672 24.9501 52.5038 26.0944C51.3356 27.2387 49.7471 27.8875 48.0864 27.8989V27.8913Z" fill="#C0C7CE"/>
</g>
<defs>
<clipPath id="clip0_29_2481">
<rect width="162" height="38" fill="white"/>
</clipPath>
</defs>
</svg>
