<svg width="90" height="19" viewBox="0 0 90 19" fill="none" xmlns="http://www.w3.org/2000/svg">
<g clip-path="url(#clip0_29_2471)">
<path d="M2.94873 12.3706C2.94873 13.4053 3.17753 14.1998 3.47658 14.6804C3.86867 15.3099 4.45348 15.5766 5.04968 15.5766C5.81867 15.5766 6.52215 15.3872 7.87785 13.526C8.96392 12.0341 10.2437 9.9401 11.1047 8.62733L12.563 6.40325C13.5759 4.85864 14.7484 3.14157 16.0927 1.9777C17.1902 1.02775 18.3741 0.5 19.5655 0.5C21.5658 0.5 23.4712 1.65068 24.9294 3.8088C26.5253 6.17236 27.3 9.14942 27.3 12.2217C27.3 14.0481 26.9373 15.3901 26.3203 16.4503C25.724 17.4756 24.562 18.5 22.6073 18.5V15.5766C24.281 15.5766 24.6987 14.0499 24.6987 12.3027C24.6987 9.81288 24.1139 7.04974 22.8256 5.07539C21.9114 3.67497 20.7266 2.81927 19.4231 2.81927C18.0133 2.81927 16.8788 3.87476 15.6038 5.75675C14.9259 6.75665 14.2301 7.97518 13.4487 9.35016L12.5886 10.8627C10.8608 13.9039 10.4231 14.5965 9.55918 15.7397C8.04494 17.7414 6.7519 18.5 5.04968 18.5C3.03038 18.5 1.75348 17.632 0.962658 16.324C0.317089 15.2581 0 13.8596 0 12.266L2.94873 12.3706Z" fill="#C0C7CE"/>
<path d="M2.3252 4.01518C3.67709 1.9466 5.62804 0.5 7.8657 0.5C9.16159 0.5 10.4499 0.880733 11.7951 1.9711C13.2667 3.16325 14.835 5.12628 16.7916 8.36157L17.4932 9.52262C19.1869 12.3235 20.1505 13.7644 20.7144 14.4439C21.4398 15.3165 21.9477 15.5766 22.6075 15.5766C24.2812 15.5766 24.6989 14.0499 24.6989 12.3027L27.3002 12.2217C27.3002 14.0481 26.9375 15.3901 26.3204 16.4503C25.7242 17.4756 24.5622 18.5 22.6075 18.5C21.3923 18.5 20.3157 18.238 19.1252 17.1231C18.21 16.2674 17.1401 14.7473 16.317 13.3808L13.8685 9.32094C12.6401 7.28346 11.5132 5.76429 10.861 5.07633C10.1594 4.33654 9.25747 3.44314 7.81823 3.44314C6.65336 3.44314 5.66412 4.25455 4.83627 5.49571L2.3252 4.01518Z" fill="#C0C7CE"/>
<path d="M7.81804 3.44314C6.65316 3.44314 5.66392 4.25455 4.83608 5.49571C3.66551 7.24953 2.94873 9.86189 2.94873 12.3706C2.94873 13.4053 3.17753 14.1998 3.47658 14.6804L0.962658 16.324C0.317089 15.2581 0 13.8596 0 12.266C0 9.36806 0.801266 6.34764 2.325 4.01518C3.6769 1.9466 5.62785 0.5 7.86551 0.5L7.81804 3.44314Z" fill="#C0C7CE"/>
<path d="M33.0322 1.06934H36.4433L42.243 11.4848L48.0436 1.06934H51.3806V18.1835H48.598V5.06703L43.5113 14.15H40.9006L35.8148 5.06703V18.1835H33.0322V1.06934ZM60.0996 7.45038C58.1041 7.45038 56.9022 8.94127 56.6145 10.7875H63.3873C63.2477 8.88567 62.1427 7.45038 60.0996 7.45038ZM53.8556 11.8392C53.8556 7.95457 56.3848 5.12735 60.148 5.12735C63.8496 5.12735 66.0598 7.91876 66.0598 12.0465V12.8051H56.6145C56.9496 14.8134 58.292 16.1667 60.4566 16.1667C62.1835 16.1667 63.2629 15.6437 64.2863 14.6871L65.7645 16.4843C64.3718 17.7556 62.6003 18.4888 60.3579 18.4888C56.2841 18.4888 53.8556 15.54 53.8556 11.8392ZM69.4338 7.69541H66.8724V5.43363H69.4338V1.69321H72.1186V5.43363H76.0101V7.69541H72.1186V13.4281C72.1186 15.3855 72.749 16.081 74.2984 16.081C75.0056 16.081 75.411 16.0206 76.0101 15.9217V18.159C75.2639 18.3682 74.5518 18.4643 73.781 18.4643C70.8825 18.4643 69.4338 16.8924 69.4338 13.7457V7.69541ZM87.3151 9.89499C86.7759 8.54358 85.573 7.54839 83.8053 7.54839C81.5079 7.54839 80.0373 9.16651 80.0373 11.8024C80.0373 14.3724 81.3911 16.0687 83.6952 16.0687C85.5066 16.0687 86.7996 15.0226 87.3151 13.7212V9.89499ZM89.9999 18.1835H87.3645V16.3986C86.6278 17.4493 85.2873 18.4888 83.1161 18.4888C79.6243 18.4888 77.2908 15.5871 77.2908 11.8024C77.2908 7.9819 79.6803 5.12735 83.2642 5.12735C85.0357 5.12735 86.4256 5.83038 87.3645 7.07154V5.43363H89.9999V18.1835Z" fill="#C0C7CE"/>
</g>
<defs>
<clipPath id="clip0_29_2471">
<rect width="90" height="18" fill="white" transform="translate(0 0.5)"/>
</clipPath>
</defs>
</svg>
