<svg fill="none" height="46" viewBox="0 0 46 46" width="46" xmlns="http://www.w3.org/2000/svg" xmlns:xlink="http://www.w3.org/1999/xlink"><clipPath id="a"><path d="m0 0h46v46h-46z"/></clipPath><g clip-path="url(#a)" fill="#394857"><path d="m17.756 46h-13.616v-20.792h-4.14v-16.928h1.564c3.772 0 6.716-2.944 6.716-6.716v-1.564h37.72v3.22h-34.592c-.736 4.14-4.048 7.452-8.188 8.188v10.58h4.14v20.792h10.488v3.22z"/><path d="m33.2118 34.0403h-2.208v1.38h2.116v1.104h-2.116v2.208h-1.288v-5.704h3.588v1.012z"/><path d="m34.776 34.1322c-.46 0-.736-.276-.736-.644s.276-.644.736-.644.736.276.736.644-.368.644-.736.644zm.644 4.6h-1.38v-4.048h1.288v4.048z"/><path d="m39.0996 35.8803c-.092 0-.276-.092-.552-.092s-.552.184-.644.276-.184.368-.184.828v1.84h-1.288v-4.048h1.288v.552c.276-.46.552-.644 1.012-.644.276 0 .368.092.368.092z"/><path d="m42.3202 38.456c-.276.276-.736.368-1.288.368-.644 0-1.288-.184-1.748-.644l.46-.828c.368.276.92.46 1.196.46.368 0 .552-.092.552-.368s-.552-.368-.736-.46c-.184 0-.368-.092-.552-.184-.092 0-.644-.276-.644-1.012 0-.828.736-1.288 1.564-1.288s1.288.276 1.564.46l-.46.736c-.276-.184-.736-.368-1.012-.368s-.46.092-.46.276.276.276.552.368.368.092.552.184l.552.276c.092.092.368.368.368.828 0 .644-.184.92-.46 1.196z"/><path d="m46.0002 35.6043h-.92v1.472c0 .368.092.46.092.46.092.092.184.092.276.092.184 0 .368-.092.368-.092l.184 1.104c-.092 0-.46.092-.92.092s-.828-.184-1.012-.368c-.184-.276-.276-.552-.276-1.196v-1.564h-.552v-1.012h.552v-1.104h1.288v1.104h.92z"/><path d="m26.2201 45.9081h-1.564l-1.196-2.208h-.46v2.208h-1.38v-5.704h2.024c.644 0 1.104.092 1.472.368s.644.736.644 1.288c0 1.104-.736 1.472-1.104 1.656zm-1.932-4.508c-.184-.092-.368-.184-.644-.184h-.552v1.472h.552c.276 0 .552 0 .644-.184.184-.092.276-.276.276-.552s-.092-.46-.276-.552z"/><path d="m28.7043 46.0001c-1.288 0-2.3-.828-2.3-2.116s1.012-2.116 2.3-2.116 2.208.828 2.208 2.116-.92 2.116-2.208 2.116zm0-3.22c-.552 0-.92.46-.92 1.012 0 .644.368 1.012.92 1.012s.92-.46.92-1.012-.368-1.012-.92-1.012z"/><path d="m35.6962 45.9079h-1.288v-.46c-.184.276-.644.552-1.196.552s-.92-.184-1.196-.46c-.184-.276-.276-.644-.276-1.196v-2.484h1.288v2.3c0 .46.092.828.644.828.46 0 .644-.368.644-.92v-2.208h1.288v4.048z"/><path d="m40.664 45.9081h-1.288v-2.116c0-.552-.092-.92-.644-.92s-.736.46-.736 1.012v2.024h-1.288v-4.048h1.288v.552c.184-.368.552-.644 1.196-.644 1.196 0 1.472.736 1.472 1.748z"/><path d="m46.0004 45.9081h-1.288v-.552c-.276.368-.828.644-1.38.644-1.196 0-1.932-.92-1.932-2.116s.736-2.116 1.932-2.116c.736 0 1.196.368 1.288.552v-2.116h1.38zm-2.208-3.128c-.552 0-.92.46-.92 1.012s.368 1.012.92 1.012.92-.46.92-1.012-.368-1.012-.92-1.012z"/></g></svg>