<svg width="21" height="21" viewBox="0 0 21 21" fill="none" xmlns="http://www.w3.org/2000/svg">
<g opacity="0.5" clip-path="url(#clip0_29_2320)">
<path d="M4.88848 6.75586H0.672694C0.485591 6.75586 0.333984 6.90753 0.333984 7.09457V20.6381C0.333984 20.8252 0.485591 20.9768 0.672694 20.9768H4.88848C5.07558 20.9768 5.22719 20.8252 5.22719 20.6381V7.09457C5.22719 6.90753 5.07558 6.75586 4.88848 6.75586Z" fill="#A6B2BE"/>
<path d="M2.78189 0.0231934C1.24794 0.0231934 0 1.26978 0 2.80204C0 4.33497 1.24794 5.58203 2.78189 5.58203C4.31462 5.58203 5.56154 4.3349 5.56154 2.80204C5.56161 1.26978 4.31462 0.0231934 2.78189 0.0231934Z" fill="#A6B2BE"/>
<path d="M15.6112 6.41919C13.918 6.41919 12.6663 7.14708 11.9072 7.97414V7.09451C11.9072 6.90747 11.7555 6.7558 11.5684 6.7558H7.53109C7.34399 6.7558 7.19238 6.90747 7.19238 7.09451V20.638C7.19238 20.8251 7.34399 20.9767 7.53109 20.9767H11.7377C11.9248 20.9767 12.0764 20.8251 12.0764 20.638V13.9371C12.0764 11.6791 12.6897 10.7994 14.2638 10.7994C15.978 10.7994 16.1143 12.2096 16.1143 14.0533V20.6381C16.1143 20.8252 16.2659 20.9768 16.453 20.9768H20.6611C20.8482 20.9768 20.9998 20.8252 20.9998 20.6381V13.2092C20.9998 9.8516 20.3596 6.41919 15.6112 6.41919Z" fill="#A6B2BE"/>
</g>
<defs>
<clipPath id="clip0_29_2320">
<rect width="21" height="21" fill="white"/>
</clipPath>
</defs>
</svg>
