<svg width="38" height="39" viewBox="0 0 38 39" fill="none" xmlns="http://www.w3.org/2000/svg">
<g clip-path="url(#clip0_29_2477)">
<path fill-rule="evenodd" clip-rule="evenodd" d="M30.2385 17.3435C24.1142 13.7066 14.0125 13.3725 8.16525 15.1474C7.22633 15.4324 6.23358 14.902 5.95017 13.9631C5.66517 13.0242 6.194 12.0314 7.1345 11.7464C13.8463 9.70867 25.0024 10.1029 32.053 14.2877C32.8969 14.7896 33.174 15.8789 32.6737 16.7228C32.1733 17.5668 31.0824 17.8454 30.2385 17.3435ZM30.039 22.7316C29.6083 23.4283 28.6979 23.6468 28.0012 23.2192C22.895 20.0811 15.1098 19.1707 9.06775 21.0042C8.28558 21.2417 7.4575 20.7999 7.22 20.0177C6.98408 19.234 7.42583 18.4091 8.208 18.17C15.1082 16.0768 23.6867 17.0902 29.5513 20.6954C30.248 21.1229 30.4665 22.0365 30.039 22.7316ZM27.7131 27.9043C27.3727 28.4648 26.6428 28.6406 26.0854 28.2986C21.6236 25.5721 16.0075 24.9562 9.39392 26.4667C8.75742 26.6123 8.1225 26.2133 7.97683 25.5768C7.83117 24.9388 8.22858 24.3038 8.86667 24.1582C16.1041 22.5036 22.3123 23.2161 27.3204 26.2767C27.8793 26.6171 28.0551 27.347 27.7131 27.9043ZM19 0.5C8.50725 0.5 0 9.00725 0 19.5C0 29.9943 8.50725 38.5 19 38.5C29.4943 38.5 38 29.9943 38 19.5C38 9.00725 29.4943 0.5 19 0.5Z" fill="#C0C7CE"/>
</g>
<defs>
<clipPath id="clip0_29_2477">
<rect width="38" height="38" fill="white" transform="translate(0 0.5)"/>
</clipPath>
</defs>
</svg>
