<?xml version="1.0" encoding="UTF-8"?>
<svg width="32px" height="32px" viewBox="0 0 32 32" version="1.1" xmlns="http://www.w3.org/2000/svg" xmlns:xlink="http://www.w3.org/1999/xlink">
    <title>OpenAI</title>
    <g id="Page-1" stroke="none" stroke-width="1" fill="none" fill-rule="evenodd">
        <path d="M29.4592231,13.1 C29.8592231,12 29.9592231,10.9 29.8592231,9.8 C29.7592231,8.7 29.3592231,7.6 28.8592231,6.6 C27.9592231,5.1 26.6592231,3.9 25.1592231,3.2 C23.5592231,2.5 21.8592231,2.3 20.1592231,2.7 C19.3592231,1.9 18.4592231,1.2 17.4592231,0.7 C16.4592231,0.2 15.2592231,0 14.1592231,0 C12.4592231,0 10.7592231,0.5 9.35922308,1.5 C7.95922308,2.5 6.95922308,3.9 6.45922308,5.5 C5.25922308,5.8 4.25922308,6.3 3.25922308,6.9 C2.35922308,7.6 1.65922308,8.5 1.05922308,9.4 C0.159223083,10.9 -0.140776917,12.6 0.0592230826,14.3 C0.259223083,16 0.959223083,17.6 2.05922308,18.9 C1.65922308,20 1.55922308,21.1 1.65922308,22.2 C1.75922308,23.3 2.15922308,24.4 2.65922308,25.4 C3.55922308,26.9 4.85922308,28.1 6.35922308,28.8 C7.95922308,29.5 9.65922308,29.7 11.3592231,29.3 C12.1592231,30.1 13.0592231,30.8 14.0592231,31.3 C15.0592231,31.8 16.2592231,32 17.3592231,32 C19.0592231,32 20.7592231,31.5 22.1592231,30.5 C23.5592231,29.5 24.5592231,28.1 25.0592231,26.5 C26.1592231,26.3 27.2592231,25.8 28.1592231,25.1 C29.0592231,24.4 29.8592231,23.6 30.3592231,22.6 C31.2592231,21.1 31.5592231,19.4 31.3592231,17.7 C31.1592231,16 30.5592231,14.4 29.4592231,13.1 Z M17.4592231,29.9 C15.8592231,29.9 14.6592231,29.4 13.5592231,28.5 C13.5592231,28.5 13.6592231,28.4 13.7592231,28.4 L20.1592231,24.7 C20.3592231,24.6 20.4592231,24.5 20.5592231,24.3 C20.6592231,24.1 20.6592231,24 20.6592231,23.8 L20.6592231,14.8 L23.3592231,16.4 L23.3592231,23.8 C23.4592231,27.3 20.6592231,29.9 17.4592231,29.9 L17.4592231,29.9 Z M4.55922308,24.4 C3.85922308,23.2 3.55922308,21.8 3.85922308,20.4 C3.85922308,20.4 3.95922308,20.5 4.05922308,20.5 L10.4592231,24.2 C10.6592231,24.3 10.7592231,24.3 10.9592231,24.3 C11.1592231,24.3 11.3592231,24.3 11.4592231,24.2 L19.2592231,19.7 L19.2592231,22.8 L12.7592231,26.6 C11.3592231,27.4 9.75922308,27.6 8.25922308,27.2 C6.65922308,26.8 5.35922308,25.8 4.55922308,24.4 L4.55922308,24.4 Z M2.85922308,10.5 C3.55922308,9.3 4.65922308,8.4 5.95922308,7.9 L5.95922308,8.1 L5.95922308,15.5 C5.95922308,15.7 5.95922308,15.9 6.05922308,16 C6.15922308,16.2 6.25922308,16.3 6.45922308,16.4 L14.2592231,20.9 L11.5592231,22.5 L5.15922308,18.8 C3.75922308,18 2.75922308,16.7 2.35922308,15.2 C1.95922308,13.7 2.05922308,11.9 2.85922308,10.5 Z M24.9592231,15.6 L17.1592231,11.1 L19.8592231,9.5 L26.2592231,13.2 C27.2592231,13.8 28.0592231,14.6 28.5592231,15.6 C29.0592231,16.6 29.3592231,17.7 29.2592231,18.9 C29.1592231,20 28.7592231,21.1 28.0592231,22 C27.3592231,22.9 26.4592231,23.6 25.3592231,24 L25.3592231,16.4 C25.3592231,16.2 25.3592231,16 25.2592231,15.9 C25.2592231,15.9 25.1592231,15.7 24.9592231,15.6 Z M27.6592231,11.6 C27.6592231,11.6 27.5592231,11.5 27.4592231,11.5 L21.0592231,7.8 C20.8592231,7.7 20.7592231,7.7 20.5592231,7.7 C20.3592231,7.7 20.1592231,7.7 20.0592231,7.8 L12.2592231,12.3 L12.2592231,9.2 L18.7592231,5.4 C19.7592231,4.8 20.8592231,4.6 22.0592231,4.6 C23.1592231,4.6 24.2592231,5 25.2592231,5.7 C26.1592231,6.4 26.9592231,7.3 27.3592231,8.3 C27.7592231,9.3 27.8592231,10.5 27.6592231,11.6 Z M10.8592231,17.2 L8.15922308,15.6 L8.15922308,8.1 C8.15922308,7 8.45922308,5.8 9.05922308,4.9 C9.65922308,3.9 10.5592231,3.2 11.5592231,2.7 C12.5592231,2.2 13.7592231,2 14.8592231,2.2 C15.9592231,2.3 17.0592231,2.8 17.9592231,3.5 C17.9592231,3.5 17.8592231,3.6 17.7592231,3.6 L11.3592231,7.3 C11.1592231,7.4 11.0592231,7.5 10.9592231,7.7 C10.8592231,7.9 10.8592231,8 10.8592231,8.2 L10.8592231,17.2 Z M12.2592231,14 L15.7592231,12 L19.2592231,14 L19.2592231,18 L15.7592231,20 L12.2592231,18 L12.2592231,14 Z" id="OpenAI" fill="#FFFFFF" fill-rule="nonzero"></path>
    </g>
</svg>