<svg width="20" height="20" viewBox="0 0 20 20" fill="none" xmlns="http://www.w3.org/2000/svg">
<path fill-rule="evenodd" clip-rule="evenodd" d="M16.8403 1.05322C18.003 1.05322 18.9455 1.99578 18.9455 3.15849V16.8427C18.9455 18.0054 18.003 18.948 16.8403 18.948H3.15604C1.99334 18.948 1.05078 18.0054 1.05078 16.8427V3.15849C1.05078 1.99578 1.99334 1.05322 3.15604 1.05322H16.8403ZM11.6547 7.02418C10.9711 7.02418 10.4159 7.45809 10.0595 7.45809C9.67969 7.45809 9.18301 7.04863 8.58699 7.04863C7.45923 7.04863 6.31394 8.02644 6.31394 9.86596C6.31394 11.0149 6.73466 12.2249 7.26056 13.0072C7.71049 13.6672 8.10199 14.2111 8.6688 14.2111C9.22975 14.2111 9.47517 13.82 10.1705 13.82C10.8776 13.82 11.0353 14.1989 11.6547 14.1989C12.2683 14.1989 12.6773 13.6122 13.063 13.0316C13.4954 12.3655 13.6765 11.7177 13.6824 11.6871C13.6473 11.6749 12.4728 11.1738 12.4728 9.76817C12.4728 8.55202 13.396 8.00811 13.4486 7.96533C12.8409 7.04863 11.9118 7.02418 11.6547 7.02418ZM12.0623 4.73743C11.5878 4.7566 11.016 5.06959 10.6754 5.49117C10.4077 5.81055 10.1583 6.32155 10.1583 6.83256C10.1583 6.90921 10.1705 6.98586 10.1766 7.01141C10.207 7.0178 10.2557 7.02418 10.3043 7.02418C10.7301 7.02418 11.2654 6.72397 11.5817 6.32155C11.8737 5.95107 12.0805 5.44645 12.0805 4.93545C12.0805 4.86518 12.0744 4.79492 12.0623 4.73743Z" fill="#787F97"/>
</svg>
