<svg width="29" height="29" viewBox="0 0 29 29" fill="none" xmlns="http://www.w3.org/2000/svg">
<circle opacity="0.5" cx="14.5" cy="14.5" r="14.5" fill="black" fill-opacity="0.15"/>
<path d="M10.7071 9.29289C10.3166 8.90237 9.68342 8.90237 9.29289 9.29289C8.90237 9.68342 8.90237 10.3166 9.29289 10.7071L13.0858 14.5L9.29291 18.2929C8.90239 18.6834 8.90239 19.3166 9.29291 19.7071C9.68344 20.0977 10.3166 20.0977 10.7071 19.7071L14.5 15.9142L18.2929 19.7071C18.6834 20.0976 19.3166 20.0976 19.7071 19.7071C20.0976 19.3166 20.0976 18.6834 19.7071 18.2929L15.9142 14.5L19.7071 10.7071C20.0977 10.3166 20.0977 9.68344 19.7071 9.29291C19.3166 8.90239 18.6834 8.90239 18.2929 9.29291L14.5 13.0858L10.7071 9.29289Z" fill="black" fill-opacity="0.45"/>
</svg>
