<svg width="32" height="32" viewBox="0 0 32 32" fill="none" xmlns="http://www.w3.org/2000/svg">
<circle opacity="0.2" cx="16" cy="16" r="16" fill="#D9AEFF"/>
<path d="M14.0933 23.5356C13.5786 23.5356 13.1497 23.3309 12.8066 22.9214L8.52344 17.7334C8.37402 17.5618 8.26888 17.3958 8.20801 17.2354C8.14714 17.0749 8.1167 16.9089 8.1167 16.7373C8.1167 16.3444 8.24674 16.0207 8.50684 15.7661C8.77246 15.506 9.10449 15.376 9.50293 15.376C9.94564 15.376 10.3136 15.5558 10.6069 15.9155L14.0601 20.1904L20.8418 9.47412C21.0133 9.21403 21.1904 9.03141 21.373 8.92627C21.5612 8.81559 21.7909 8.76025 22.062 8.76025C22.4604 8.76025 22.7897 8.88753 23.0498 9.14209C23.3099 9.39665 23.4399 9.71761 23.4399 10.105C23.4399 10.2489 23.415 10.3983 23.3652 10.5532C23.3154 10.7082 23.238 10.8687 23.1328 11.0347L15.4048 22.8633C15.1004 23.3115 14.6632 23.5356 14.0933 23.5356Z" fill="#9A5FC7"/>
</svg>
