<svg width="46" height="46" viewBox="0 0 46 46" fill="none" xmlns="http://www.w3.org/2000/svg">
<path d="M5.75 16.8667C5.75 13.6464 5.75 12.0362 6.37671 10.8062C6.92798 9.72428 7.80762 8.84464 8.88956 8.29337C10.1195 7.66666 11.7297 7.66666 14.95 7.66666H31.05C34.2703 7.66666 35.8804 7.66666 37.1104 8.29337C38.1924 8.84464 39.072 9.72428 39.6233 10.8062C40.25 12.0362 40.25 13.6464 40.25 16.8667V25.875C40.25 28.5542 40.25 29.8937 39.8123 30.9504C39.2287 32.3593 38.1093 33.4787 36.7004 34.0623C35.6437 34.5 32.3875 34.5 29.7083 34.5C26.5238 34.5 20.6937 38.4683 16.6136 40.9105C15.9378 41.3151 15.5998 41.5173 15.2841 41.4856C15.0177 41.4589 14.754 41.3057 14.5989 41.0874C14.415 40.8289 14.4237 40.4189 14.4412 39.5988C14.4888 37.3707 14.5216 34.5 14.375 34.5C11.6958 34.5 10.3563 34.5 9.29957 34.0623C7.89066 33.4787 6.77128 32.3593 6.18769 30.9504C5.75 29.8937 5.75 28.5542 5.75 25.875V16.8667Z" stroke="#7E69AA" stroke-width="2.875" stroke-linecap="round" stroke-linejoin="round"/>
<path d="M21.0047 24.2073V23.3557C20.9196 21.6645 21.6009 20.5574 23.2798 19.5719C24.7885 18.6595 25.2994 18.0025 25.2994 16.8102V16.798C25.2994 15.4962 24.2653 14.5716 22.7445 14.5716C21.175 14.5716 20.1896 15.5449 20.0801 16.9318L20.0679 17.0413H17.2088L17.221 16.9075C17.3548 14.1822 19.2893 12.0896 22.9027 12.0896C26.2241 12.0896 28.4627 13.9997 28.4627 16.6885V16.7007C28.4627 18.55 27.538 19.8518 25.8834 20.8372C24.2896 21.7619 23.8395 22.4067 23.8395 23.599V24.2073H21.0047ZM22.4647 29.9255C21.4792 29.9255 20.6884 29.1712 20.6884 28.21C20.6884 27.2367 21.4792 26.4946 22.4647 26.4946C23.4502 26.4946 24.2288 27.2367 24.2288 28.21C24.2288 29.1712 23.4502 29.9255 22.4647 29.9255Z" fill="#7E69AA"/>
</svg>
