<svg xmlns="http://www.w3.org/2000/svg" width="46" height="46" fill="none"><path fill="#7E69AA" d="M24 7.66668c8.4684 0 15.3333 6.86492 15.3333 15.33332S32.4684 38.3333 24 38.3333c-4.816 0-9.1126-2.218-11.9267-5.6957-.6659-.8229-1.8728-.9502-2.69564-.2843-.82289.6659-.95016 1.8727-.28429 2.6956C12.6041 39.3874 17.9782 42.1667 24 42.1667c10.5855 0 19.1667-8.5812 19.1667-19.1667 0-10.5854-8.5812-19.16666-19.1667-19.16666-9.3747 0-17.17749 6.73046-18.83974 15.62296-.5497-.1195-1.06818-.2591-1.60886-.4047l-.22749-.0612-1.21946-.3923c-.69503-.2235-1.322378.4594-1.00028 1.089l4.52771 8.8497c.27511.5377 1.04936.6055 1.41363.1237l5.99569-7.9291c.4265-.5641-.0727-1.3455-.796-1.2461l-1.269.1746c-.6571.0904-1.31783.1425-1.97868.1568C10.4629 12.8761 16.6231 7.66668 24 7.66668Z"/><path fill="#7E69AA" d="M25.7667 13.4167c0-1.0586-.8581-1.9167-1.9167-1.9167-1.0585 0-1.9167.8581-1.9167 1.9167V23c0 .6408.3203 1.2393.8535 1.5948l5.75 3.8333c.8808.5872 2.0708.3492 2.658-.5316.5871-.8808.3491-2.0708-.5316-2.6579l-4.8965-3.2644v-8.5575Z"/></svg>