<svg xmlns="http://www.w3.org/2000/svg" width="46" height="46" fill="none"><path fill="#7E69AA" fill-rule="evenodd" d="M9.31931 18.7468c0-2.1667 1.75649-3.9232 3.92319-3.9232 2.1667 0 3.9232 1.7565 3.9232 3.9232S15.4092 22.67 13.2425 22.67s-3.92319-1.7565-3.92319-3.9232Zm3.92319-6.165c-3.40484 0-6.165 2.7602-6.165 6.165s2.76016 6.165 6.165 6.165c3.4048 0 6.165-2.7602 6.165-6.165s-2.7602-6.165-6.165-6.165ZM5.41165 32.2076c1.81211-2.3982 4.64855-3.9331 7.83085-3.9331 1.8299 0 3.5455.5076 5.0178 1.395.4596-.603.9577-1.1748 1.4905-1.7115-1.8787-1.2177-4.1113-1.9253-6.5083-1.9253-3.92445 0-7.40797 1.8966-9.61948 4.8234l-.03013.0399c-.19014.2514-.39402.521-.53972.7811-.17636.3149-.30707.6791-.29897 1.1221.00651.356.1144.6893.2454.9525.13101.2632.33191.5502.61207.7701.37363.2932.78042.397 1.14178.4403.31702.038.6927.038 1.07042.0379H17.9078c-.2571-.2768-.4518-.5811-.592-.8628-.1875-.3766-.3485-.8556-.3761-1.379H5.87502c-.44126 0-.67864-.0018-.84523-.0208.02546-.0418.06202-.0969.1156-.1719.07057-.0988.1554-.2112.26626-.3579Z" clip-rule="evenodd"/><path stroke="#7E69AA" stroke-linecap="round" stroke-linejoin="round" stroke-width="2.61902" d="M31.212 26.022c-4.1513 0-7.8429 2.0044-10.1933 5.1149-.5058.6695-.7587 1.0042-.7505 1.4566.0064.3495.2259.7904.5009 1.0062.356.2794.8492.2794 1.8358.2794h17.2142c.9865 0 1.4798 0 1.8358-.2794.275-.2158.4944-.6567.5008-1.0062.0083-.4524-.2446-.7871-.7505-1.4566-2.3503-3.1105-6.042-5.1149-10.1932-5.1149ZM31.212 22.0935c3.2545 0 5.8928-2.6383 5.8928-5.8928s-2.6383-5.8928-5.8928-5.8928-5.8928 2.6383-5.8928 5.8928 2.6383 5.8928 5.8928 5.8928Z"/></svg>