<svg xmlns="http://www.w3.org/2000/svg" width="26" height="26" fill="none"><circle cx="13" cy="13" r="13" fill="#D9DEE1"/><path fill="#6D747C" d="M11.6804 18.82c-.403 0-.7389-.1603-1.0076-.481l-3.35427-4.0625c-.11701-.1343-.19935-.2643-.24702-.39C7.02384 13.7608 7 13.6308 7 13.4965c0-.3077.10184-.5612.30553-.7605.20801-.2037.46803-.3055.78006-.3055.3467 0 .63489.1408.86457.4225l2.70424 3.3475 5.3109-8.3915c.1344-.20367.2731-.34667.4161-.429.1473-.08667.3272-.13.5395-.13.312 0 .5699.09967.7736.299S19 7.99967 19 8.303c0 .11267-.0195.22967-.0585.351-.039.12133-.0997.247-.182.377l-6.052 9.2625c-.2384.351-.5807.5265-1.0271.5265Z"/></svg>