<svg width="160" height="37" viewBox="0 0 160 37" fill="none" xmlns="http://www.w3.org/2000/svg">
<path fill-rule="evenodd" clip-rule="evenodd" d="M18.5 37C28.7176 37 37 28.7176 37 18.5C37 8.28245 28.7176 0 18.5 0C8.28245 0 0 8.28245 0 18.5C0 28.7176 8.28245 37 18.5 37ZM15.7254 18.5H20.9674C21.7033 18.5 22.4092 18.2076 22.9296 17.6872C23.45 17.1668 23.7424 16.461 23.7424 15.725C23.7424 14.989 23.45 14.2832 22.9296 13.7628C22.4092 13.2424 21.7033 12.95 20.9674 12.95H15.7254V18.5ZM12.0254 9.25H20.9674C22.6846 9.25 24.3316 9.93219 25.5459 11.1465C26.7602 12.3608 27.4424 14.0077 27.4424 15.725C27.4424 17.4423 26.7602 19.0892 25.5459 20.3035C24.3316 21.5178 22.6846 22.2 20.9674 22.2H15.7254V27.75H12.0254V9.25Z" fill="#9D9B96"/>
<path d="M49.188 25V12.994H54.804C57.414 12.994 58.836 14.758 58.836 16.864C58.836 18.952 57.396 20.698 54.804 20.698H51.744V25H49.188ZM56.226 16.846C56.226 15.856 55.47 15.19 54.462 15.19H51.744V18.502H54.462C55.47 18.502 56.226 17.854 56.226 16.846ZM60.5914 25V16.306H62.8774V17.494C63.4894 16.72 64.5694 16.108 65.6494 16.108V18.34C65.4874 18.304 65.2714 18.286 65.0194 18.286C64.2634 18.286 63.2554 18.7 62.8774 19.258V25H60.5914ZM71.3348 25.216C68.4728 25.216 66.7448 23.128 66.7448 20.644C66.7448 18.178 68.4728 16.09 71.3348 16.09C74.2148 16.09 75.9428 18.178 75.9428 20.644C75.9428 23.128 74.2148 25.216 71.3348 25.216ZM71.3348 23.182C72.7568 23.182 73.5668 22.012 73.5668 20.644C73.5668 19.294 72.7568 18.124 71.3348 18.124C69.9128 18.124 69.1208 19.294 69.1208 20.644C69.1208 22.012 69.9128 23.182 71.3348 23.182ZM83.8397 25V23.902C83.1557 24.748 82.2017 25.216 81.1577 25.216C78.9617 25.216 77.3057 23.56 77.3057 20.662C77.3057 17.818 78.9437 16.09 81.1577 16.09C82.1837 16.09 83.1557 16.54 83.8397 17.422V12.994H86.1437V25H83.8397ZM83.8397 22.192V19.114C83.4437 18.538 82.6337 18.124 81.8597 18.124C80.5637 18.124 79.6637 19.15 79.6637 20.662C79.6637 22.156 80.5637 23.182 81.8597 23.182C82.6337 23.182 83.4437 22.768 83.8397 22.192ZM94.5036 25V23.902C93.9096 24.568 92.8656 25.216 91.4436 25.216C89.5356 25.216 88.6356 24.172 88.6356 22.48V16.306H90.9216V21.58C90.9216 22.786 91.5516 23.182 92.5236 23.182C93.4056 23.182 94.1076 22.696 94.5036 22.192V16.306H96.7896V25H94.5036ZM98.7264 20.644C98.7264 17.98 100.652 16.09 103.334 16.09C105.116 16.09 106.196 16.864 106.772 17.674L105.278 19.06C104.864 18.466 104.234 18.124 103.442 18.124C102.056 18.124 101.084 19.132 101.084 20.644C101.084 22.156 102.056 23.182 103.442 23.182C104.234 23.182 104.864 22.822 105.278 22.246L106.772 23.632C106.196 24.442 105.116 25.216 103.334 25.216C100.652 25.216 98.7264 23.326 98.7264 20.644ZM111.408 25.216C109.806 25.216 108.942 24.388 108.942 22.84V18.304H107.502V16.306H108.942V13.93H111.246V16.306H113.01V18.304H111.246V22.228C111.246 22.768 111.534 23.182 112.038 23.182C112.38 23.182 112.704 23.056 112.83 22.93L113.316 24.658C112.974 24.964 112.362 25.216 111.408 25.216ZM127.909 25V19.96H122.239V25H119.683V12.994H122.239V17.71H127.909V12.994H130.483V25H127.909ZM138.888 25V23.902C138.294 24.568 137.25 25.216 135.828 25.216C133.92 25.216 133.02 24.172 133.02 22.48V16.306H135.306V21.58C135.306 22.786 135.936 23.182 136.908 23.182C137.79 23.182 138.492 22.696 138.888 22.192V16.306H141.174V25H138.888ZM149.537 25V19.744C149.537 18.538 148.907 18.124 147.935 18.124C147.035 18.124 146.333 18.628 145.955 19.15V25H143.669V16.306H145.955V17.44C146.513 16.774 147.575 16.09 148.997 16.09C150.905 16.09 151.823 17.17 151.823 18.862V25H149.537ZM157.234 25.216C155.632 25.216 154.768 24.388 154.768 22.84V18.304H153.328V16.306H154.768V13.93H157.072V16.306H158.836V18.304H157.072V22.228C157.072 22.768 157.36 23.182 157.864 23.182C158.206 23.182 158.53 23.056 158.656 22.93L159.142 24.658C158.8 24.964 158.188 25.216 157.234 25.216Z" fill="#9D9B96"/>
</svg>
