<svg xmlns="http://www.w3.org/2000/svg" width="70" height="70" fill="none"><path fill="#DAD3D0" fill-rule="evenodd" d="M25.6 2h8.8c4.5134 0 7.7782.00156 10.3459.21134 2.5444.20789 4.2276.61022 5.61 1.31457 2.6342 1.34223 4.776 3.48395 6.1182 6.11822.7043 1.38237 1.1067 3.06557 1.3146 5.60997C57.9984 17.8218 58 21.0866 58 25.6v8.8c0 1.342-.0001 2.5735-.0058 3.7092.6781.0748 1.3449.1872 1.9982.3351C60 37.2056 60 35.8625 60 34.4v-8.8c0-8.9608 0-13.4413-1.7439-16.86385-1.534-3.01059-3.9817-5.45828-6.9923-6.99225C47.8413 0 43.3608 0 34.4 0h-8.8C16.6392 0 12.1587 0 8.73615 1.7439 5.72556 3.27787 3.27787 5.72556 1.7439 8.73615 0 12.1587 0 16.6392 0 25.6v8.8c0 8.9608 0 13.4413 1.7439 16.8638 1.53397 3.0106 3.98166 5.4583 6.99225 6.9923C12.1587 60 16.6392 60 25.6 60h8.8c1.4625 0 2.8056 0 4.0443-.0076-.1479-.6533-.2603-1.3201-.3351-1.9982C36.9735 57.9999 35.742 58 34.4 58h-8.8c-4.5134 0-7.7782-.0016-10.3459-.2113-2.5444-.2079-4.2276-.6103-5.60997-1.3146-2.63427-1.3422-4.77599-3.484-6.11822-6.1182-.70435-1.3824-1.10668-3.0656-1.31457-5.61C2.00156 42.1782 2 38.9134 2 34.4v-8.8c0-4.5134.00156-7.7782.21134-10.3459.20789-2.5444.61022-4.2276 1.31457-5.60997 1.34223-2.63427 3.48395-4.77599 6.11822-6.11822 1.38237-.70435 3.06557-1.10668 5.60997-1.31457C17.8218 2.00156 21.0866 2 25.6 2Z" clip-rule="evenodd"/><path fill="#695C55" d="M29.3618 42.2061c-.2023-.0839-.3861-.2068-.5409-.3618l-8.3325-8.3324c-.3127-.3127-.4884-.7368-.4884-1.179 0-.4423.1757-.8664.4884-1.1791.3127-.3127.7368-.4884 1.179-.4884.4423 0 .8664.1757 1.1791.4884l5.487 5.489V17.3345c0-.442.1756-.8659.4881-1.1784.3125-.3126.7364-.4881 1.1784-.4881.442 0 .8659.1755 1.1784.4881.3125.3125.4881.7364.4881 1.1784v19.3083l5.487-5.489c.1548-.1548.3387-.2776.541-.3614.2023-.0838.4191-.127.6381-.127.2189 0 .4358.0432.6381.127.2023.0838.3861.2066.5409.3614.1549.1548.2777.3387.3615.541.0838.2023.1269.4191.1269.6381 0 .2189-.0431.4357-.1269.638-.0838.2023-.2066.3862-.3615.541l-8.3325 8.3324c-.1548.155-.3386.2779-.5409.3618-.2023.0838-.4192.127-.6382.127-.219 0-.4359-.0432-.6382-.127Z"/><circle cx="56" cy="56" r="14" fill="#695C55"/><path fill="#fff" d="M55.4396 62.5576c-.1679 0-.2799-.112-.2799-.2798V51.6825h-2.1455c-.1679 0-.2798-.1119-.2798-.2798v-1.6229c0-.1679.1119-.2798.2798-.2798h4.4403c.1679 0 .2799.1119.2799.2798v12.498c0 .1678-.112.2798-.2799.2798h-2.0149Z"/></svg>