<svg width="80" height="40" viewBox="0 0 80 40" fill="none" xmlns="http://www.w3.org/2000/svg">
<g clip-path="url(#clip0_398_4731)">
<path d="M0 0H13.3333V13.3333H0V0ZM13.3333 0H26.6667V13.3333H13.3333V0ZM13.3333 13.3333H26.6667V26.6667H13.3333V13.3333ZM13.3333 26.6667H26.6667V40H13.3333V26.6667ZM26.6667 0H40V13.3333H26.6667V0ZM40 13.3333H53.3333V26.6667H40V13.3333ZM40 26.6667H53.3333V40H40V26.6667ZM53.3333 26.6667H66.6667V40H53.3333V26.6667ZM53.3333 0H66.6667V13.3333H53.3333V0ZM66.6667 26.6667H80V40H66.6667V26.6667ZM66.6667 0H80V13.3333H66.6667V0Z" fill="#9D9B96"/>
</g>
<defs>
<clipPath id="clip0_398_4731">
<rect width="80" height="40" fill="white"/>
</clipPath>
</defs>
</svg>
