<svg xmlns="http://www.w3.org/2000/svg" width="65" height="58" fill="none"><path stroke="#B3ACB0" stroke-linecap="round" stroke-linejoin="round" stroke-width="3.25" d="M32.5026 18.4066v35.1867m6.5001-8.9266c0-2.3933 1.94-4.3334 4.3333-4.3334m-17.3328-13c0 2.3933-1.9401 4.3334-4.3333 4.3334m4.3333 13c0-2.3933-1.9401-4.3334-4.3333-4.3334m17.3328-13c0 2.3933 1.9401 4.3334 4.3333 4.3334m-9.4686-13.7432c-.7948.643-1.9309.643-2.7257 0-2.8059-2.2392-6.8957-1.7798-9.1349 1.0261-.5935.7437-1.0165 1.6086-1.2391 2.5337-.1838.8407-.8421 1.4964-1.6835 1.677-4.1044.8331-6.7564 4.8357-5.9234 8.9402.1948.9597.5737 1.8726 1.1156 2.6883.5033.7369.5033 1.7071 0 2.444-2.3178 3.4884-1.3688 8.1952 2.1195 10.5129.8157.542 1.7286.9208 2.6883 1.1156.8415.1806 1.4997.8363 1.6836 1.677.8448 3.489 4.3581 5.6325 7.8472 4.7876.9226-.2234 1.785-.6462 2.5268-1.2386.7947-.643 1.9308-.643 2.7256 0 2.8069 2.238 6.8965 1.7768 9.1345-1.0301.5946-.7456 1.0177-1.613 1.2395-2.5406.1839-.8407.8421-1.4963 1.6835-1.677 4.1044-.8334 6.7561-4.8363 5.9227-8.9407-.195-.9604-.5744-1.8739-1.117-2.6899-.5014-.736-.5014-1.7037 0-2.4397 2.319-3.4875 1.3718-8.1946-2.1157-10.5137-.8161-.5426-1.7296-.9219-2.69-1.117-.8414-.1806-1.4996-.8362-1.6835-1.677-.8449-3.489-4.3582-5.6325-7.8472-4.7876-.9226.2234-1.7851.6462-2.5268 1.2387v.0108Z"/><g fill="#B3ACB0" opacity=".5"><path d="M45.3993 9.29462c.0747.07466.176.11198.304.11198.256 0 .4053-.13864.4479-.41593.1387-.77856.2613-1.3918.368-1.83973.1173-.44793.2879-.78922.5119-1.02385.2346-.2453.5813-.43193 1.0399-.55992.4586-.12798 1.0985-.26129 1.9197-.39994.2879-.05332.4319-.20797.4319-.46393s-.144-.4106-.4319-.46393c-.8212-.13865-1.4611-.27729-1.9197-.41594-.4586-.13864-.7999-.32528-1.0239-.55991-.224-.23464-.3946-.57059-.5119-1.00785-.1173-.44794-.2453-1.06118-.384-1.839732C46.1086.138646 45.9593 0 45.7033 0s-.4053.138646-.4479.415938c-.1387.789212-.2667 1.407792-.384 1.855722-.1066.44794-.2773.78922-.5119 1.02385-.224.23463-.5652.41594-1.0238.54392-.4586.12798-1.0985.26129-1.9198.39994-.2773.05333-.4159.20797-.4159.46393s.1386.41061.4159.46393c.8213.14931 1.4558.28796 1.9038.41594.4586.12798.7998.31462 1.0238.55992.2346.23463.4106.57591.5279 1.02385.1173.44793.2453 1.05584.384 1.82373.0213.11731.0693.21863.1439.30395ZM57.6125 22.858c.0563.3657.2532.5486.5908.5486s.5345-.1829.5908-.5486c.1969-1.0268.3728-1.8357.5275-2.4264.1547-.5908.3798-1.041.6752-1.3504.2954-.3236.7385-.5697 1.3293-.7385.6048-.1688 1.4488-.3517 2.5319-.5486.3798-.0563.5697-.2532.5697-.5908s-.1899-.5416-.5697-.6119c-1.069-.1969-1.913-.3798-2.5319-.5486-.6049-.1688-1.0621-.4079-1.3715-.7174-.2954-.3235-.5205-.7736-.6752-1.3503-.1407-.5908-.3024-1.3997-.4853-2.4265-.0563-.3657-.2532-.5486-.5908-.5486s-.5345.1829-.5908.5486c-.1829 1.0268-.3517 1.8427-.5064 2.4476-.1547.5907-.3798 1.0479-.6752 1.3714-.2954.3095-.7455.5486-1.3503.7174-.6049.1688-1.4419.3376-2.5109.5064-.1688.0281-.3095.0985-.422.211-.0985.0985-.1477.2321-.1477.4009 0 .3376.1829.5345.5486.5908 1.0831.1969 1.9271.3868 2.532.5697.6048.1688 1.0549.4079 1.3503.7174.3095.3094.5346.7596.6752 1.3504.1547.5907.3235 1.3996.5064 2.4264ZM5.61251 22.858c.05627.3657.2532.5486.59079.5486.3376 0 .53453-.1829.59079-.5486.19693-1.0268.37276-1.8357.52749-2.4264.15474-.5908.3798-1.041.67519-1.3504.2954-.3236.73849-.5697 1.32929-.7385.60485-.1688 1.44884-.3517 2.53194-.5486.3798-.0563.5697-.2532.5697-.5908s-.1899-.5416-.5697-.6119c-1.069-.1969-1.91302-.3798-2.53194-.5486-.60486-.1688-1.06202-.4079-1.37148-.7174-.2954-.3235-.52046-.7736-.67519-1.3503-.14067-.5908-.30243-1.3997-.4853-2.4265C6.73783 11.1829 6.5409 11 6.2033 11c-.33759 0-.53452.1829-.59079.5486-.18286 1.0268-.35166 1.8427-.50639 2.4476-.15473.5907-.3798 1.0479-.67519 1.3714-.2954.3095-.74552.5486-1.35038.7174-.60485.1688-1.44181.3376-2.510857.5064-.168798.0281-.309464.0985-.421996.211C.0492323 16.9009 0 17.0345 0 17.2033c0 .3376.182864.5345.548592.5908 1.083118.1969 1.927108.3868 2.531958.5697.60486.1688 1.05498.4079 1.35038.7174.30946.3094.53452.7596.67519 1.3504.15473.5907.32353 1.3996.50639 2.4264Z"/></g></svg>