<svg xmlns="http://www.w3.org/2000/svg" width="53" height="35" fill="none"><rect width="51.4912" height="4" x="50.1973" y="34.2967" fill="#D8E8DB" rx="2" transform="rotate(-152.366 50.1973 34.2967)"/><path fill="#D8E8DB" fill-rule="evenodd" d="M5.10352 33.4082c1.63281.888 3.58073 1.332 5.84378 1.332h28.1875c1.0336 0 2.0268-.1031 2.9798-.3092l-7.1242-3.7298H10.9688c-1.44666 0-2.67844-.2435-3.69536-.7305-1.01693-.487-1.79753-1.1602-2.3418-2.0195-.54427-.8737-.81641-1.8978-.81641-3.0723 0-1.5182.4655-2.8001 1.39649-3.8457.94531-1.0599 2.29883-1.819 4.06055-2.2773.60093-.1538 1.03133-.3825 1.29143-.6862l-4.77127-2.4979c-.9416.4042-1.79403.9284-2.55727 1.5727-1.08855.931-1.94076 2.0482-2.556644 3.3516-.601563 1.2891-.9023441 2.7142-.9023441 4.2754 0 1.8476.4296871 3.5306 1.2890581 5.0488.8737 1.5039 2.1198 2.6999 3.73829 3.5879Zm42.94898-9.5103c.1278-.5992.1916-1.2247.1916-1.8764 0-1.6472-.4082-3.1367-1.2246-4.4688-.8164-1.332-2.0052-2.3847-3.5664-3.1582-1.5469-.7877-3.4303-1.1816-5.6504-1.1816-.6731 0-1.1959-.1074-1.5683-.3223-.3581-.2148-.6732-.5944-.9453-1.1386-.8164-1.6329-1.7976-3.02218-2.9434-4.16802-1.1315-1.16015-2.4062-2.04101-3.8242-2.64257-1.418-.60157-2.972-.90235-4.6621-.90235-1.6615 0-3.2155.30795-4.6621.92383-1.2052.51824-2.304 1.21902-3.2962 2.10235l-3.8695-2.02583c.246-.25487.5004-.50238.7633-.74253 1.4896-1.36068 3.1797-2.41342 5.0703-3.15821C19.7559.379557 21.7539 0 23.8594 0c3.2513 0 6.1445.802083 8.6797 2.40625 2.5494 1.60417 4.5547 3.83854 6.0156 6.70313 1.9765 0 3.7956.32226 5.457.96682 1.6758.6445 3.1296 1.5468 4.3613 2.707 1.2461 1.1602 2.2058 2.5208 2.879 4.082.6875 1.5469 1.0312 3.2299 1.0312 5.0489 0 1.3642-.1954 2.6619-.5863 3.8931-.0338-.0185-.0678-.0368-.1021-.0547l-3.5423-1.8546Z" clip-rule="evenodd"/></svg>