<svg width="107" height="125" viewBox="0 0 107 125" fill="none" xmlns="http://www.w3.org/2000/svg">
<path d="M67.3401 41.4699C67.3401 49.2237 61.0539 55.5099 53.3001 55.5099C45.5464 55.5099 39.2601 49.2241 39.2601 41.4699C39.2601 33.7156 45.5464 27.4299 53.3001 27.4299C61.0539 27.4299 67.3401 33.7157 67.3401 41.4699Z" fill="#B3ACB0"/>
<path d="M53.2997 15.5999C55.2497 15.5999 56.8095 14.0401 56.8095 12.0901V3.50978C56.8095 1.55978 55.2497 0 53.2997 0C51.3497 0 49.7899 1.55978 49.7899 3.50978V12.0897C49.7899 14.0401 51.3497 15.5999 53.2997 15.5999Z" fill="#B3ACB0" fill-opacity="0.5"/>
<path d="M34.32 16.5099C34.84 17.8099 36.1401 18.7197 37.57 18.7197C37.9601 18.7197 38.4798 18.5898 38.87 18.4598C40.6901 17.6799 41.47 15.73 40.82 13.9098L37.57 5.97995C36.79 4.15984 34.8401 3.37995 33.02 4.02995C31.1998 4.80987 30.42 6.75984 31.07 8.57995L34.32 16.5099Z" fill="#B3ACB0" fill-opacity="0.5"/>
<path d="M21.7099 26.6499C22.3599 27.2999 23.2697 27.6901 24.18 27.6901C25.0898 27.6901 26.0001 27.2999 26.6501 26.6499C28.08 25.22 28.08 23.0097 26.6501 21.7097L20.5403 15.5999C19.1104 14.17 16.9001 14.17 15.6001 15.5999C14.1702 17.0298 14.1702 19.2401 15.6001 20.5401L21.7099 26.6499Z" fill="#B3ACB0" fill-opacity="0.5"/>
<path d="M5.97966 37.4399L13.9095 40.6899C14.2997 40.8198 14.8194 40.9497 15.2095 40.9497C16.6394 40.9497 17.9394 40.1698 18.4595 38.7399C19.2395 36.9198 18.3296 34.8399 16.5095 34.1899L8.57966 30.9399C6.75955 30.16 4.67966 31.0699 4.02966 32.8899C3.24974 34.7096 4.15957 36.7899 5.97966 37.4399Z" fill="#B3ACB0" fill-opacity="0.5"/>
<path d="M15.5999 53.2999C15.5999 51.3499 14.0401 49.7901 12.0901 49.7901H3.51022C1.55978 49.7901 0 51.3499 0 53.2999C0 55.2499 1.55978 56.8097 3.50978 56.8097H12.0897C14.0401 56.8097 15.5999 55.2499 15.5999 53.2999Z" fill="#B3ACB0" fill-opacity="0.5"/>
<path d="M16.5097 72.2799C18.3298 71.5 19.1097 69.55 18.4597 67.7299C17.6798 65.9098 15.7298 65.1299 13.9097 65.7799L5.9798 69.0299C4.15969 69.8098 3.3798 71.7598 4.0298 73.5799C4.54989 74.8799 5.84991 75.7897 7.2798 75.7897C7.66997 75.7897 8.18963 75.6598 8.5798 75.5298L16.5097 72.2799Z" fill="#B3ACB0" fill-opacity="0.5"/>
<path d="M100.62 69.1599L92.6902 65.9099C90.8701 65.13 88.7902 66.0398 88.1402 67.8599C87.3603 69.68 88.2701 71.7599 90.0902 72.4099L98.0201 75.6599C98.4103 75.7898 98.9299 75.9197 99.3201 75.9197C100.75 75.9197 102.05 75.1398 102.57 73.7099C103.35 71.8903 102.44 69.8099 100.62 69.1599Z" fill="#B3ACB0" fill-opacity="0.5"/>
<path d="M103.09 49.7899H94.51C92.56 49.7899 91.0003 51.3497 91.0003 53.2997C91.0003 55.2497 92.56 56.8095 94.51 56.8095H103.09C105.04 56.8095 106.6 55.2497 106.6 53.2997C106.6 51.3497 105.04 49.7899 103.09 49.7899Z" fill="#B3ACB0" fill-opacity="0.5"/>
<path d="M88.14 38.8699C88.66 40.1699 89.9601 41.0797 91.39 41.0797C91.7801 41.0797 92.2998 40.9498 92.69 40.8199L100.62 37.5699C102.44 36.7899 103.22 34.84 102.57 33.0199C101.79 31.1997 99.7101 30.4199 98.0199 31.0699L90.09 34.3199C88.2698 34.9699 87.3596 37.0498 88.14 38.8699Z" fill="#B3ACB0" fill-opacity="0.5"/>
<path d="M82.4198 27.6899C83.3297 27.6899 84.24 27.2997 84.89 26.6497L90.9997 20.5399C92.4296 19.11 92.4296 16.8997 90.9997 15.5997C89.5698 14.1698 87.3595 14.1698 86.0595 15.5997L79.9497 21.7095C78.5198 23.1394 78.5198 25.3497 79.9497 26.6497C80.7297 27.2997 81.5095 27.6899 82.4198 27.6899Z" fill="#B3ACB0" fill-opacity="0.5"/>
<path d="M67.7297 18.4599C68.1199 18.5898 68.6395 18.7197 69.0297 18.7197C70.4596 18.7197 71.7596 17.9398 72.2797 16.5099L75.5297 8.58005C76.3096 6.75994 75.3998 4.68005 73.5797 4.03005C71.7596 3.25013 69.6797 4.15996 69.0297 5.98005L65.7797 13.9099C65.1297 15.6002 65.9096 17.68 67.7297 18.4599Z" fill="#B3ACB0" fill-opacity="0.5"/>
<path d="M95.4174 85.9102L82.2874 79.02C80.7277 78.2401 79.2972 76.9401 78.2576 75.5102L70.4576 64.5902C67.9874 61.0804 63.9576 59 59.5376 59L46.5376 59.0004C42.2474 59.0004 38.2175 61.0803 35.6176 64.5906L27.8176 75.5106C26.7774 76.9405 25.3475 78.2405 23.7877 79.0204L10.6577 85.7802C7.66746 87.34 6.23757 90.8503 7.40767 93.84C8.83757 97.3498 12.8674 98.7802 16.2479 97.09L29.6379 90.3302C33.0178 88.64 35.8781 86.04 38.0879 82.9204L38.3477 82.6606V97.8706L52.9989 104L67.5971 97.8706L67.5979 82.5306L67.8577 82.7904C70.0675 85.9105 72.9278 88.3806 76.3077 90.2002L89.6977 97.0904C90.6075 97.6105 91.6477 97.7404 92.5575 97.7404C95.0276 97.7404 97.4977 96.1806 98.5373 93.5806C99.7079 90.7209 98.2777 87.3405 95.4174 85.9102Z" fill="#B3ACB0"/>
<path d="M81.7099 101.44C82.9143 104.29 81.5806 107.576 78.731 108.781L42.5204 124.085C39.6708 125.289 36.3844 123.955 35.18 121.106C33.9757 118.256 35.3094 114.97 38.159 113.766L74.3696 98.4614C77.2192 97.257 80.5056 98.5907 81.7099 101.44Z" fill="#B3ACB0"/>
<path d="M49.1451 105.765L31.9086 98.4807C29.059 97.2764 25.7726 98.6101 24.5683 101.46C23.364 104.309 24.6978 107.596 27.5474 108.8L34.7561 111.847L49.1451 105.765Z" fill="#B3ACB0"/>
<path d="M70.3035 115.431L56.771 121.151L63.7583 124.104C66.6079 125.308 69.8942 123.974 71.0986 121.124C71.9292 119.159 71.5524 116.986 70.3035 115.431Z" fill="#B3ACB0"/>
</svg>
