<svg width="14" height="16" viewBox="0 0 14 16" fill="none" xmlns="http://www.w3.org/2000/svg">
<path d="M8.86877 2.55507C9.3624 1.95692 9.71011 1.14042 9.71011 0.315633C9.71011 0.201798 9.70183 0.0889981 9.68527 0C8.87704 0.0320807 7.90738 0.533989 7.33303 1.21286C6.87252 1.73029 6.45133 2.55507 6.45133 3.37986C6.45133 3.50922 6.47617 3.6303 6.48444 3.67066C6.53205 3.67893 6.6138 3.69446 6.70177 3.69446C7.42203 3.69446 8.3265 3.21014 8.86877 2.55507ZM9.43484 3.86417C8.23026 3.86417 7.24403 4.59996 6.6138 4.59996C5.94218 4.59996 5.06875 3.91281 4.01837 3.91281C2.02109 3.91281 0 5.56238 0 8.66697C0 10.6073 0.744066 12.6533 1.67337 13.9706C2.46608 15.0862 3.1615 16 4.16325 16C5.14947 16 5.58618 15.3449 6.8156 15.3449C8.06054 15.3449 8.34306 15.9834 9.43484 15.9834C10.5183 15.9834 11.2376 14.99 11.9247 14.011C12.6853 12.8871 13.0082 11.7964 13.0165 11.7395C12.9513 11.7229 10.8816 10.8743 10.8816 8.50553C10.8816 6.45133 12.5063 5.5303 12.6046 5.45786C11.5284 3.91281 9.88811 3.86417 9.43484 3.86417Z" fill="#32312E" fill-opacity="0.44"/>
</svg>
