<svg xmlns="http://www.w3.org/2000/svg" width="44" height="44" fill="none"><path stroke="#A7B7AA" stroke-linecap="round" stroke-linejoin="round" stroke-width="3.25" d="m8.53125 15.3333 1.60225-9.61997C10.4912 3.57111 12.3468 2 14.5179 2H29.209c2.1734 0 4.0267 1.57111 4.3845 3.71333l1.6044 9.61997M11.3952 42c3.6819 0 6.6666-2.9848 6.6666-6.6667 0-3.6819-2.9847-6.6666-6.6666-6.6666-3.68192 0-6.66668 2.9847-6.66668 6.6666C4.72852 39.0152 7.71328 42 11.3952 42ZM32.3424 42c3.6819 0 6.6667-2.9848 6.6667-6.6667 0-3.6819-2.9848-6.6666-6.6667-6.6666-3.6818 0-6.6666 2.9847-6.6666 6.6666 0 3.6819 2.9848 6.6667 6.6666 6.6667Z"/><path stroke="#A7B7AA" stroke-linecap="round" stroke-linejoin="round" stroke-width="3.25" d="M18.0605 35.3333c2.1045-2.54 5.5156-2.54 7.62 0M2 24.2222c11.0467-5.9266 28.9533-5.9266 40 0"/></svg>