<svg xmlns="http://www.w3.org/2000/svg" width="56" height="33" fill="none"><path fill="#AABAAD" fill-rule="evenodd" d="M33.5195 27.7188H7.72146c-.00181-.0224-.00271-.0444-.00271-.066V4.78474c0-.54739.57765-1.34724 1.75793-1.34724H33.6622c.0886-.55806.2255-1.01893.4373-1.43445C34.5086 1.20011 35.1068.513656 35.8377 0H9.47668C6.81673 0 4.28125 1.94553 4.28125 4.78474V27.6528c0 .022.00015.044.00046.066H2.5c-1.38071 0-2.5 1.1192-2.5 2.5 0 1.3807 1.11929 2.5 2.5 2.5h32.9712c-.5654-.473-1.0333-1.0576-1.3717-1.7218-.408-.8007-.5383-1.7699-.58-3.2782Z" clip-rule="evenodd"/><path stroke="#AABAAD" stroke-linecap="round" stroke-linejoin="round" stroke-width="1.95233" d="M44.0984 4.17262h2.9284M43.3663 28.4554h4.3926M43.3663 1h-3.2945c-.8737 0-1.7117.34711-2.3295.96498-.6179.61786-.965 1.45587-.965 2.32966V28.4554c0 .8738.3471 1.7118.965 2.3296.6178.6179 1.4558.965 2.3295.965h10.9816c.8737 0 1.7117-.3471 2.3295-.965.6178-.6178.9649-1.4558.9649-2.3296V4.29464c0-.87379-.3471-1.7118-.9649-2.32966C52.7651 1.34711 51.9271 1 51.0534 1h-7.6871Z"/></svg>