<svg width="606" height="222" viewBox="0 0 606 222" fill="none" xmlns="http://www.w3.org/2000/svg">
<g clip-path="url(#clip0_461_1431)">
<path d="M605.213 221.992H505.626L470.992 148.107H402.387L407.089 135.477H465.126L428.278 56.585L452.012 0.0020752H484.876L560.231 160.014C570.797 182.434 584.241 213.369 605.211 221.992H605.213ZM303.077 213.48V116.226C303.077 116.226 327.974 123.738 352.87 160.236V61.704C327.918 98.812 303.077 104.098 303.077 104.098V8.51605C356.854 8.51605 382.415 34.386 395.914 57.866L420.478 0.00305176H193.64C214.223 14.5231 229.105 27.153 229.105 77.895V221.994H420.478L395.028 168.25C380.478 190.836 352.814 213.48 303.078 213.48H303.077ZM0 0.0020752C15.436 8.90408 37.345 23.3721 37.345 68.6041V155.786C37.345 204.19 2.26801 221.882 2.26801 221.882H83.598C83.598 221.882 48.52 204.357 48.52 155.786V43.7891L211.4 222.549V110.329L110.65 0.00402832H0V0.0020752ZM537.438 24.65H532.792V8.23602H539.099C542.091 7.61902 545.016 9.55605 545.631 12.5681C545.688 12.8451 545.723 13.128 545.737 13.412C545.778 14.3685 545.51 15.3126 544.972 16.1044C544.433 16.8961 543.654 17.4932 542.75 17.8071L546.68 24.5391H542.198L538.602 18.7521H537.439L537.438 24.65ZM537.438 15.748H538.933C539.226 15.806 539.528 15.7974 539.817 15.7228C540.106 15.6482 540.375 15.5095 540.603 15.3171C540.832 15.1247 541.014 14.8835 541.136 14.6112C541.259 14.3389 541.319 14.0425 541.311 13.744C541.311 13.4521 541.245 13.164 541.118 12.9011C540.991 12.6382 540.807 12.4074 540.578 12.2257C540.35 12.044 540.083 11.9163 539.799 11.8519C539.514 11.7876 539.218 11.7883 538.934 11.8541H537.439L537.438 15.748ZM522.002 16.6931C522.002 7.47505 529.43 0.00102344 538.596 -0.000976562C538.708 -0.000976562 538.82 -0.000962402 538.932 0.0010376C548.097 0.187038 555.378 7.80806 555.194 17.0211C555.01 26.2391 547.434 33.5611 538.268 33.3771C529.233 33.1971 522.004 25.7811 522.002 16.6931ZM525.212 16.6931C525.212 24.3731 531.402 30.603 539.042 30.603C546.682 30.603 552.875 24.3731 552.875 16.6931C552.875 9.01305 546.682 2.78302 539.043 2.78302C531.403 2.78302 525.211 9.01005 525.211 16.6931H525.212Z" fill="#3C4856"/>
</g>
<defs>
<clipPath id="clip0_461_1431">
<rect width="605.213" height="221.993" fill="white"/>
</clipPath>
</defs>
</svg>
