<svg xmlns="http://www.w3.org/2000/svg" fill="none" viewBox="0 0 18 11"><path fill="#373e46" d="M9 10.3008c-.32552 0-.62174-.1302-.88867-.39064L.679688 2.30273C.56901 2.19857.484375 2.08138.425781 1.95117c-.052083-.13672-.078125-.2832-.078125-.43945 0-.21484.048828-.41016.146485-.585939C.598307.75.735026.613281.904297.515625c.169273-.104167.361323-.15625.576173-.15625.3125 0 .58594.117187.82031.351563L9.47852 8.06445h-.94727L15.6992.710938c.2344-.234376.5078-.351563.8203-.351563.2149 0 .4069.052083.5762.15625.1693.097656.3027.234375.4004.410156.1042.175779.1562.371099.1562.585939 0 .30599-.1106.56966-.332.79101L9.88867 9.91016c-.1237.13024-.26041.22784-.41015.29294-.14974.0651-.30925.0977-.47852.0977Z"/></svg>