<svg xmlns="http://www.w3.org/2000/svg" width="68" height="17" fill="none" viewBox="0 0 68 17"><path fill="#21232E" d="m12.9284 16.2092-4.4869-6.1964c1.8409-.78569 2.9186-2.24502 2.9186-4.40029 0-3.188-2.2002-4.894248-5.9495-4.894248H0V16.2092h3.8166v-5.3208h.9654l3.4125 5.3208h4.7339ZM7.5883 5.83702c0 1.48175-.9429 2.28999-2.6042 2.28999H3.7942V3.6144H5.029c1.6613 0 2.5593.78578 2.5593 2.22262Z"/><path fill="#21232E" d="m22.4651 15.199-.3367-2.4023c-1.2124.7185-2.4023 1.1675-3.6146 1.1675-1.5042 0-2.5369-.6511-2.7165-2.4023h6.6454c.0224-.1796.0449-.5388.0449-.8755 0-3.18802-1.4818-5.70251-4.8718-5.70251-2.986 0-5.1861 2.17772-5.1861 5.76981 0 3.9064 2.3573 5.6801 5.6575 5.6801 1.7287 0 3.188-.4715 4.3779-1.2348ZM17.526 7.18407c1.0327 0 1.6164.85314 1.7287 2.51444h-3.4799c.1123-1.6838.7858-2.51444 1.7512-2.51444ZM38.7437 5.20842h-3.1431l-1.4593 6.39838-1.5715-6.39838h-3.0533l-1.5491 6.39838-1.5042-6.55553-3.5023.42656 3.0084 10.73137h3.2553l1.594-6.28617 1.6165 6.28617h3.2329l3.0757-11.00078ZM43.6077 1.95325c0-1.122536-.8307-1.8634062-1.9308-1.8634062-1.0776 0-1.9308.7408702-1.9308 1.8634062 0 1.10008.8532 1.81851 1.9308 1.81851 1.1001 0 1.9308-.71843 1.9308-1.81851Zm-.2245 14.25615V5.2086h-3.4126v11.0008h3.4126ZM55.3432 16.2092V8.39641c0-2.15528-1.0777-3.41252-3.1207-3.41252-1.3919 0-2.4471.74088-3.4349 1.72871l-.247-1.5042h-2.9859v11.0008h3.39V8.98011c.6062-.6062 1.2124-.9878 1.8634-.9878.8083 0 1.1226.5388 1.1226 1.3246v6.89229h3.4125ZM67.2667 16.2094V0l-3.39.53882v4.96161c-.629-.22451-1.325-.38166-2.335-.38166-2.425 0-4.6472 1.70625-4.6472 5.90453 0 3.7044 1.7292 5.4107 3.9742 5.4107 1.414 0 2.424-.8307 3.165-1.6614l.225 1.4368h3.008Zm-3.39-3.9064c-.584.6511-1.167 1.1226-1.886 1.1226-.965 0-1.684-.7634-1.684-2.6492 0-2.11042.853-2.986 1.976-2.986.718 0 1.1.08981 1.594.31428V12.303Z"/></svg>