<svg width="42" height="30" viewBox="0 0 42 30" fill="none" xmlns="http://www.w3.org/2000/svg">
<g opacity="0.5">
<path d="M2.1304 26.0853C2.1304 25.7901 2.23343 25.5395 2.43951 25.3334C2.64559 25.1217 2.89622 25.0159 3.19142 25.0159H4.96257V15.166C4.96257 14.5199 5.1408 14.027 5.49726 13.6872C5.85371 13.3475 6.34384 13.1776 6.96765 13.1776H21.8971C22.5488 13.1776 23.0445 13.3475 23.3842 13.6872C23.7295 14.027 23.9022 14.5199 23.9022 15.166V25.0159H25.6734C25.9685 25.0159 26.2192 25.1217 26.4253 25.3334C26.6313 25.5395 26.7344 25.7901 26.7344 26.0853C26.7344 26.3749 26.6313 26.6256 26.4253 26.8372C26.2192 27.0488 25.9685 27.1547 25.6734 27.1547H3.19142C2.89622 27.1547 2.64559 27.0488 2.43951 26.8372C2.23343 26.6256 2.1304 26.3749 2.1304 26.0853ZM6.60005 25.0159H22.2647V15.6004C22.2647 15.3331 22.1979 15.1353 22.0642 15.0072C21.9361 14.8791 21.744 14.8151 21.4878 14.8151H7.37702C7.12081 14.8151 6.92587 14.8791 6.7922 15.0072C6.6641 15.1353 6.60005 15.3331 6.60005 15.6004V25.0159Z" fill="#7159A4"/>
<rect x="19.8203" y="0.816895" width="22.178" height="28.8483" fill="#FAFAFC"/>
<path d="M23.8485 28.854C23.1098 28.854 22.5114 28.6364 22.0534 28.2013C21.601 27.7718 21.3748 27.1992 21.3748 26.4834V12.4317C21.3748 11.7217 21.601 11.1491 22.0534 10.7139C22.5114 10.2787 23.1098 10.0611 23.8485 10.0611H30.6081C31.341 10.0611 31.9279 10.2787 32.3689 10.7139C32.8155 11.1491 33.0388 11.7217 33.0388 12.4317V26.4834C33.0388 27.1935 32.8155 27.7661 32.3689 28.2013C31.9279 28.6364 31.341 28.854 30.6081 28.854H23.8485ZM24.1405 27.119H30.2903C30.6281 27.119 30.8887 27.0303 31.0719 26.8528C31.2609 26.6753 31.3553 26.4233 31.3553 26.0969V12.8182C31.3553 12.4975 31.2609 12.2485 31.0719 12.071C30.8887 11.8877 30.6281 11.7961 30.2903 11.7961H24.1405C23.7969 11.7961 23.5307 11.8849 23.3417 12.0624C23.1585 12.2399 23.0669 12.4918 23.0669 12.8182V26.0969C23.0669 26.4233 23.1585 26.6753 23.3417 26.8528C23.5307 27.0303 23.7969 27.119 24.1405 27.119ZM25.3602 26.4491C25.2399 26.4491 25.1368 26.409 25.051 26.3288C24.9651 26.2487 24.9221 26.1456 24.9221 26.0196C24.9221 25.8879 24.9651 25.782 25.051 25.7018C25.1368 25.6217 25.2399 25.5816 25.3602 25.5816H29.0706C29.1966 25.5816 29.2997 25.6217 29.3799 25.7018C29.46 25.782 29.5001 25.8879 29.5001 26.0196C29.5001 26.1456 29.46 26.2487 29.3799 26.3288C29.2997 26.409 29.1966 26.4491 29.0706 26.4491H25.3602ZM26.1332 13.7544C25.9442 13.7544 25.7868 13.6914 25.6608 13.5655C25.5348 13.4395 25.4718 13.282 25.4718 13.0931C25.4718 12.9098 25.5348 12.7552 25.6608 12.6292C25.7868 12.4975 25.9442 12.4317 26.1332 12.4317H28.289C28.4723 12.4317 28.6269 12.4975 28.7529 12.6292C28.8846 12.7552 28.9504 12.9098 28.9504 13.0931C28.9504 13.282 28.8874 13.4395 28.7614 13.5655C28.6355 13.6914 28.478 13.7544 28.289 13.7544H26.1332Z" fill="#7159A4"/>
</g>
</svg>
