<svg width="24" height="24" viewBox="0 0 24 24" fill="none" xmlns="http://www.w3.org/2000/svg">
<g clip-path="url(#clip0_596_12357)">
<path d="M0 12C0 5.37258 5.37258 0 12 0C18.6274 0 24 5.37258 24 12C24 18.6274 18.6274 24 12 24C5.37258 24 0 18.6274 0 12Z" fill="#7350D1"/>
<path fill-rule="evenodd" clip-rule="evenodd" d="M17.0901 7.39016L9.93016 14.3001L8.03016 12.2701C7.68016 11.9401 7.13016 11.9201 6.73016 12.2001C6.34016 12.4901 6.23016 13.0001 6.47016 13.4101L8.72016 17.0701C8.94016 17.4101 9.32015 17.6201 9.75015 17.6201C10.1601 17.6201 10.5501 17.4101 10.7701 17.0701C11.1301 16.6001 18.0001 8.41016 18.0001 8.41016C18.9001 7.49016 17.8101 6.68016 17.0901 7.38016V7.39016Z" fill="white"/>
</g>
<defs>
<clipPath id="clip0_596_12357">
<rect width="24" height="24" fill="white"/>
</clipPath>
</defs>
</svg>
