<svg width="39" height="30" viewBox="0 0 39 30" fill="none" xmlns="http://www.w3.org/2000/svg">
<g opacity="0.5">
<path d="M2.21964 17.6257C2.21964 16.5448 2.4223 15.5315 2.82763 14.5858C3.23939 13.6336 3.80556 12.7972 4.52613 12.0766C5.24671 11.3496 6.07988 10.7834 7.02564 10.3781C7.97783 9.97278 8.99436 9.77011 10.0752 9.77011C11.1625 9.77011 12.1791 9.97278 13.1248 10.3781C14.077 10.7834 14.9134 11.3496 15.634 12.0766C16.3546 12.7972 16.9175 13.6336 17.3228 14.5858C17.7346 15.5315 17.9405 16.5448 17.9405 17.6257C17.9405 18.475 17.8086 19.2824 17.5448 20.048C17.2875 20.8136 16.9304 21.5117 16.4736 22.1422L20.8743 26.5622C21.0094 26.6908 21.1091 26.842 21.1734 27.0157C21.2442 27.1895 21.2796 27.3728 21.2796 27.5658C21.2796 27.836 21.2185 28.0805 21.0962 28.2993C20.974 28.518 20.8067 28.6885 20.5944 28.8108C20.3821 28.9394 20.1376 29.0038 19.8609 29.0038C19.6679 29.0038 19.4814 28.9684 19.3012 28.8976C19.1275 28.8333 18.9699 28.7303 18.8283 28.5888L14.3987 24.1592C13.7811 24.5709 13.1055 24.8958 12.3721 25.1339C11.6451 25.3655 10.8794 25.4813 10.0752 25.4813C8.99436 25.4813 7.97783 25.2786 7.02564 24.8733C6.07988 24.468 5.24671 23.905 4.52613 23.1845C3.80556 22.4639 3.23939 21.6307 2.82763 20.6849C2.4223 19.7328 2.21964 18.713 2.21964 17.6257ZM4.27522 17.6257C4.27522 18.4299 4.42319 19.1827 4.71915 19.8839C5.02153 20.5852 5.43972 21.2029 5.97372 21.7369C6.50772 22.2644 7.12536 22.6794 7.82664 22.9818C8.52792 23.2842 9.27745 23.4354 10.0752 23.4354C10.8794 23.4354 11.6322 23.2842 12.3335 22.9818C13.0348 22.6794 13.6492 22.2644 14.1767 21.7369C14.7107 21.2029 15.1289 20.5852 15.4313 19.8839C15.7337 19.1827 15.8849 18.4299 15.8849 17.6257C15.8849 16.8279 15.7337 16.0784 15.4313 15.3771C15.1289 14.6758 14.7107 14.0582 14.1767 13.5242C13.6492 12.9902 13.0348 12.5752 12.3335 12.2793C11.6322 11.9769 10.8794 11.8257 10.0752 11.8257C9.27745 11.8257 8.52792 11.9769 7.82664 12.2793C7.12536 12.5752 6.50772 12.9902 5.97372 13.5242C5.43972 14.0582 5.02153 14.6758 4.71915 15.3771C4.42319 16.0784 4.27522 16.8279 4.27522 17.6257Z" fill="#7159A4"/>
<path d="M28.3687 17.5738C28.2586 17.5738 28.1611 17.5363 28.0761 17.4613C27.996 17.3862 27.9485 17.2887 27.9335 17.1686C27.8134 16.3582 27.6859 15.6753 27.5508 15.1201C27.4157 14.5698 27.2406 14.117 27.0255 13.7619C26.8104 13.4067 26.5253 13.124 26.1701 12.9139C25.8199 12.6988 25.3722 12.5262 24.8269 12.3962C24.2866 12.2661 23.6163 12.1485 22.8159 12.0435C22.6858 12.0285 22.5832 11.981 22.5082 11.9009C22.4332 11.8159 22.3956 11.7133 22.3956 11.5933C22.3956 11.4782 22.4332 11.3806 22.5082 11.3006C22.5882 11.2156 22.6908 11.1655 22.8159 11.1505C23.6163 11.0605 24.2891 10.9554 24.8344 10.8354C25.3797 10.7103 25.8299 10.5402 26.1851 10.3251C26.5403 10.105 26.8254 9.81484 27.0405 9.45465C27.2606 9.09447 27.4357 8.63673 27.5658 8.08145C27.7009 7.52616 27.8234 6.84081 27.9335 6.02539C27.9485 5.90533 27.996 5.80778 28.0761 5.73274C28.1611 5.65771 28.2586 5.62019 28.3687 5.62019C28.4888 5.62019 28.5863 5.65771 28.6614 5.73274C28.7414 5.80778 28.7939 5.90533 28.8189 6.02539C28.929 6.84081 29.0491 7.52616 29.1791 8.08145C29.3142 8.63673 29.4893 9.09447 29.7044 9.45465C29.9245 9.80984 30.2096 10.0975 30.5598 10.3176C30.915 10.5327 31.3652 10.7028 31.9105 10.8279C32.4558 10.9529 33.1286 11.0605 33.9291 11.1505C34.0541 11.1655 34.1542 11.2156 34.2292 11.3006C34.3093 11.3856 34.3493 11.4832 34.3493 11.5933C34.3493 11.7133 34.3093 11.8159 34.2292 11.9009C34.1542 11.986 34.0541 12.0335 33.9291 12.0435C33.1286 12.1335 32.4533 12.2411 31.903 12.3661C31.3577 12.4862 30.9075 12.6538 30.5523 12.8689C30.1971 13.084 29.912 13.3717 29.6969 13.7318C29.4818 14.092 29.3067 14.5523 29.1716 15.1126C29.0415 15.6728 28.924 16.3582 28.8189 17.1686C28.7989 17.2887 28.7489 17.3862 28.6689 17.4613C28.5888 17.5363 28.4888 17.5738 28.3687 17.5738ZM23.1835 9.25955C23.0135 9.25955 22.9159 9.16701 22.8909 8.98191C22.8309 8.48666 22.7683 8.09896 22.7033 7.81881C22.6383 7.53367 22.5332 7.32106 22.3881 7.18099C22.2431 7.03591 22.0229 6.92586 21.7278 6.85082C21.4376 6.77578 21.0399 6.69574 20.5347 6.61069C20.3446 6.58568 20.2495 6.49063 20.2495 6.32555C20.2495 6.17047 20.3321 6.07792 20.4972 6.04791C21.0124 5.95286 21.4176 5.86781 21.7128 5.79278C22.0079 5.71273 22.2281 5.60268 22.3731 5.46261C22.5232 5.32253 22.6308 5.11493 22.6958 4.83979C22.7658 4.56464 22.8309 4.17945 22.8909 3.68419C22.9159 3.4991 23.0135 3.40655 23.1835 3.40655C23.3486 3.40655 23.4437 3.4941 23.4687 3.66919C23.5287 4.17444 23.5913 4.57215 23.6563 4.8623C23.7263 5.15245 23.8339 5.37006 23.9789 5.51513C24.124 5.66021 24.3441 5.76776 24.6393 5.8378C24.9344 5.90283 25.3396 5.97287 25.8549 6.04791C25.93 6.05291 25.99 6.08292 26.035 6.13795C26.085 6.18798 26.11 6.25051 26.11 6.32555C26.11 6.48563 26.0275 6.58068 25.8624 6.61069C25.3421 6.71075 24.9344 6.80079 24.6393 6.88083C24.3491 6.95587 24.1315 7.06593 23.9865 7.211C23.8414 7.35107 23.7338 7.56118 23.6638 7.84133C23.5938 8.11647 23.5287 8.50167 23.4687 8.99692C23.4537 9.07196 23.4212 9.13449 23.3711 9.18452C23.3211 9.23454 23.2586 9.25955 23.1835 9.25955ZM26.8154 4.01436C26.7104 4.01436 26.6503 3.95933 26.6353 3.84928C26.5803 3.54412 26.5303 3.304 26.4852 3.12891C26.4452 2.95382 26.3802 2.82125 26.2901 2.7312C26.2051 2.64116 26.0725 2.57112 25.8924 2.5211C25.7173 2.46607 25.4672 2.41104 25.142 2.35601C25.032 2.331 24.977 2.26597 24.977 2.16091C24.977 2.06586 25.032 2.00583 25.142 1.98082C25.4672 1.92079 25.7173 1.86576 25.8924 1.81573C26.0725 1.76071 26.2051 1.68817 26.2901 1.59812C26.3802 1.50808 26.4452 1.37801 26.4852 1.20792C26.5303 1.03283 26.5803 0.792709 26.6353 0.487552C26.6503 0.377496 26.7104 0.322468 26.8154 0.322468C26.9205 0.322468 26.983 0.377496 27.003 0.487552C27.053 0.792709 27.1006 1.03283 27.1456 1.20792C27.1906 1.38301 27.2556 1.51558 27.3407 1.60563C27.4307 1.69567 27.5633 1.76821 27.7384 1.82324C27.9185 1.87326 28.1711 1.92579 28.4963 1.98082C28.6063 2.00083 28.6614 2.06086 28.6614 2.16091C28.6614 2.26597 28.6063 2.331 28.4963 2.35601C28.1711 2.41104 27.9185 2.46607 27.7384 2.5211C27.5633 2.57112 27.4307 2.64366 27.3407 2.73871C27.2556 2.82875 27.1906 2.96132 27.1456 3.13641C27.1006 3.3065 27.053 3.54412 27.003 3.84928C26.983 3.95933 26.9205 4.01436 26.8154 4.01436Z" fill="#7159A4"/>
</g>
</svg>
