<svg xmlns="http://www.w3.org/2000/svg" width="70" height="70" fill="none" viewBox="0 0 70 70"><g clip-path="url(#a)"><path fill="#DAD3D0" fill-rule="evenodd" d="M25.6 2h8.8c4.5134 0 7.7782.00156 10.3459.21134 2.5444.20789 4.2276.61022 5.61 1.31457 2.6342 1.34223 4.776 3.48395 6.1182 6.11822.7043 1.38237 1.1067 3.06557 1.3146 5.60997C57.9984 17.8218 58 21.0866 58 25.6v8.8c0 1.342-.0001 2.5735-.0058 3.7092.6781.0748 1.3449.1872 1.9982.3351C60 37.2056 60 35.8625 60 34.4v-8.8c0-8.9608 0-13.4413-1.7439-16.86385-1.534-3.01059-3.9817-5.45828-6.9923-6.99225C47.8413 0 43.3608 0 34.4 0h-8.8C16.6392 0 12.1587 0 8.73615 1.7439 5.72556 3.27787 3.27787 5.72556 1.7439 8.73615 0 12.1587 0 16.6392 0 25.6v8.8c0 8.9608 0 13.4413 1.7439 16.8638 1.53397 3.0106 3.98166 5.4583 6.99225 6.9923C12.1587 60 16.6392 60 25.6 60h8.8c1.4625 0 2.8056 0 4.0443-.0076-.1479-.6533-.2603-1.3201-.3351-1.9982C36.9735 57.9999 35.742 58 34.4 58h-8.8c-4.5134 0-7.7782-.0016-10.3459-.2113-2.5444-.2079-4.2276-.6103-5.60997-1.3146-2.63427-1.3422-4.77599-3.484-6.11822-6.1182-.70435-1.3824-1.10668-3.0656-1.31457-5.61C2.00156 42.1782 2 38.9134 2 34.4v-8.8c0-4.5134.00156-7.7782.21134-10.3459.20789-2.5444.61022-4.2276 1.31457-5.60997 1.34223-2.63427 3.48395-4.77599 6.11822-6.11822 1.38237-.70435 3.06557-1.10668 5.60997-1.31457C17.8218 2.00156 21.0866 2 25.6 2Z" clip-rule="evenodd"/><path fill="#695C55" d="M39.8552 33.3131c.0699.07.1647.105.2845.105.2395 0 .3792-.13.4191-.3899.1298-.7298.2446-1.3047.3444-1.7246.1098-.4199.2694-.7398.479-.9597.2196-.23.544-.4049.9731-.5249.4292-.12 1.028-.2449 1.7965-.3749.2695-.05.4042-.1949.4042-.4349 0-.2399-.1347-.3849-.4042-.4349-.7685-.1299-1.3673-.2599-1.7965-.3899-.4291-.1299-.7485-.3049-.9581-.5248-.2096-.22-.3693-.5349-.4791-.9448-.1097-.4199-.2295-.9947-.3593-1.7246-.0399-.2599-.1796-.3899-.4191-.3899-.2396 0-.3793.13-.4192.3899-.1298.7399-.2495 1.3197-.3593 1.7396-.0998.4199-.2595.7398-.4791.9598-.2096.2199-.5289.3899-.9581.5098-.4292.12-1.028.245-1.7965.3749-.2595.05-.3892.195-.3892.4349 0 .24.1297.3849.3892.4349.7685.14 1.3624.2699 1.7815.3899.4292.12.7486.2949.9582.5249.2195.2199.3842.5398.494.9597.1098.4199.2295.9898.3593 1.7096.0199.11.0649.2049.1347.2849ZM30.9933 25.9562c.0519.3379.2335.5069.5449.5069s.493-.169.5449-.5069c.1817-.9488.3439-1.6961.4866-2.2419.1427-.5459.3503-.9618.6228-1.2477.2724-.2989.6811-.5264 1.2261-.6823.5579-.156 1.3364-.325 2.3354-.5069.3503-.052.5255-.2339.5255-.5459 0-.3119-.1752-.5003-.5255-.5653-.9861-.182-1.7645-.3509-2.3354-.5069-.5579-.156-.9796-.3769-1.2651-.6628-.2724-.2989-.48-.7148-.6227-1.2477-.1298-.5459-.279-1.2932-.4477-2.2419-.0519-.3379-.2335-.5069-.5449-.5069s-.493.169-.5449.5069c-.1687.9487-.3244 1.7025-.4671 2.2614-.1427.5459-.3503.9682-.6228 1.2672-.2725.2859-.6876.5068-1.2456.6628-.5579.156-1.3299.3119-2.3159.4679-.1557.026-.2855.091-.3893.1949-.0908.091-.1362.2145-.1362.3704 0 .312.1687.4939.506.5459.9991.1819 1.7775.3574 2.3354.5264.558.1559.9731.3769 1.2456.6628.2854.2859.493.7018.6228 1.2477.1427.5458.2984 1.2931.4671 2.2419ZM24.168 42.298c.0718.468.3233.702.7545.702.4312 0 .6827-.234.7545-.702.2515-1.3139.4761-2.3489.6737-3.1049.1976-.756.4851-1.3319.8623-1.7279.3773-.414.9432-.729 1.6977-.945.7725-.216 1.8504-.45 3.2337-.702.485-.072.7275-.324.7275-.7559 0-.432-.2425-.693-.7275-.783-1.3654-.252-2.4433-.486-3.2337-.702-.7725-.216-1.3564-.522-1.7516-.918-.3772-.414-.6647-.9899-.8623-1.7279-.1796-.756-.3862-1.791-.6198-3.1049-.0718-.468-.3233-.702-.7545-.702-.4312 0-.6827.234-.7545.702-.2336 1.3139-.4491 2.3579-.6468 3.1319-.1976.756-.485 1.3409-.8623 1.7549-.3772.396-.9521.702-1.7246.918-.7725.216-1.8414.432-3.2067.648-.2156.036-.3953.126-.539.27-.1257.126-.1886.297-.1886.513 0 .4319.2335.6839.7006.7559 1.3833.252 2.4612.495 3.2337.729.7725.216 1.3474.522 1.7246.918.3953.396.6827.9719.8623 1.7279.1977.756.4132 1.791.6468 3.1049ZM56 70c7.732 0 14-6.268 14-14s-6.268-14-14-14-14 6.268-14 14 6.268 14 14 14Z"/><path fill="#fff" d="M56.0125 62.6541c-1.9128 0-3.2574-.8901-3.9959-2.0074-.0947-.1704-.0569-.3219.0568-.4166l1.2499-1.1363c.1136-.1136.284-.1136.4166.0379.4924.606 1.1363 1.1173 2.1021 1.1173 1.2689 0 1.9696-.8522 1.9696-1.837 0-.909-.625-1.818-1.9885-1.818h-.5113c-.1894 0-.303-.1136-.303-.303v-1.5339c0-.1894.1136-.2841.303-.2841h.4924c1.1552 0 1.6476-.7764 1.6476-1.534 0-.909-.7197-1.5339-1.6666-1.5339-.7954 0-1.4203.4166-1.7991 1.0605-.1136.1894-.2651.1704-.4166.0379l-1.1742-1.1552c-.1136-.0947-.1704-.2462-.0568-.3977C53.0392 49.8522 54.3459 49 56.0693 49c2.1021 0 3.9201 1.3067 3.9201 3.4845 0 1.4961-.89 2.443-1.8559 2.8786 1.2121.4734 2.3294 1.5529 2.3294 3.3519 0 2.3673-1.9506 3.9391-4.4504 3.9391Z"/></g><defs><clipPath id="a"><path fill="#fff" d="M0 0h70v70H0z"/></clipPath></defs></svg>