<svg xmlns="http://www.w3.org/2000/svg" width="70" height="70" fill="none" viewBox="0 0 70 70"><g clip-path="url(#a)"><path fill="#DAD3D0" fill-rule="evenodd" d="M25.6 2h8.8c4.5134 0 7.7782.00156 10.3459.21134 2.5444.20789 4.2276.61022 5.61 1.31457 2.6342 1.34223 4.776 3.48395 6.1182 6.11822.7043 1.38237 1.1067 3.06557 1.3146 5.60997C57.9984 17.8218 58 21.0866 58 25.6v8.8c0 1.342-.0001 2.5735-.0058 3.7092.6781.0748 1.3449.1872 1.9982.3351C60 37.2056 60 35.8625 60 34.4v-8.8c0-8.9608 0-13.4413-1.7439-16.86385-1.534-3.01059-3.9817-5.45828-6.9923-6.99225C47.8413 0 43.3608 0 34.4 0h-8.8C16.6392 0 12.1587 0 8.73615 1.7439 5.72556 3.27787 3.27787 5.72556 1.7439 8.73615 0 12.1587 0 16.6392 0 25.6v8.8c0 8.9608 0 13.4413 1.7439 16.8638 1.53397 3.0106 3.98166 5.4583 6.99225 6.9923C12.1587 60 16.6392 60 25.6 60h8.8c1.4625 0 2.8056 0 4.0443-.0076-.1479-.6533-.2603-1.3201-.3351-1.9982C36.9735 57.9999 35.742 58 34.4 58h-8.8c-4.5134 0-7.7782-.0016-10.3459-.2113-2.5444-.2079-4.2276-.6103-5.60997-1.3146-2.63427-1.3422-4.77599-3.484-6.11822-6.1182-.70435-1.3824-1.10668-3.0656-1.31457-5.61C2.00156 42.1782 2 38.9134 2 34.4v-8.8c0-4.5134.00156-7.7782.21134-10.3459.20789-2.5444.61022-4.2276 1.31457-5.60997 1.34223-2.63427 3.48395-4.77599 6.11822-6.11822 1.38237-.70435 3.06557-1.10668 5.60997-1.31457C17.8218 2.00156 21.0866 2 25.6 2Z" clip-rule="evenodd"/><path fill="#695C55" d="M56 70c7.732 0 14-6.268 14-14s-6.268-14-14-14-14 6.268-14 14 6.268 14 14 14Z"/><path fill="#fff" d="M52.3397 62.6308c-.1732 0-.2887-.1155-.2887-.2888v-1.6557c0-.1348.0385-.2503.1347-.3658l4.0428-4.2356c.5775-.6353 1.5593-1.5787 1.5593-2.8108 0-1.0782-.77-1.829-1.9636-1.829-1.1166 0-1.7326.6546-2.2139 1.3091-.154.1733-.2888.1541-.4428 0l-1.1743-1.1744c-.1348-.1347-.1348-.2887-.0385-.4235C52.7055 50.0589 53.9761 49 56.036 49c2.5989 0 4.3507 1.7327 4.3507 4.043 0 1.9253-1.2321 3.1382-1.8096 3.7543l-3.3497 3.581h4.8706c.1732 0 .2887.1155.2887.2887v1.675c0 .1733-.1155.2888-.2887.2888h-7.7583Z"/><path stroke="#695C55" stroke-linecap="round" stroke-linejoin="round" stroke-width="2.5" d="M23.3346 42.2502H36.668c2.1631 0 3.9166-1.7536 3.9166-3.9167v-9.3333c0-2.1632-1.7535-3.9167-3.9166-3.9167H23.3346c-2.1631 0-3.9166 1.7535-3.9166 3.9167v9.3333c0 2.1631 1.7535 3.9167 3.9166 3.9167Z"/><path stroke="#695C55" stroke-linecap="round" stroke-linejoin="round" stroke-width="2.5" d="m35.25 30.2144-6.8676 6.8645-3.1324-3.1175"/><g clip-path="url(#b)"><mask id="c" width="17" height="15" x="21.6699" y="12" fill="#000" maskUnits="userSpaceOnUse"><path fill="#fff" d="M21.6699 12h17v15h-17z"/><path fill-rule="evenodd" d="M24.6699 24.3333v-4c0-2.9455 2.3878-5.3333 5.3334-5.3333 2.9455 0 5.3333 2.3878 5.3333 5.3333v4" clip-rule="evenodd"/></mask><path fill="#695C55" d="M22.1699 24.3333c0 1.3807 1.1193 2.5 2.5 2.5s2.5-1.1193 2.5-2.5h-5Zm0-4c0 1.3807 1.1193 2.5 2.5 2.5s2.5-1.1193 2.5-2.5h-5ZM30.0033 12.5c-1.3808 0-2.5 1.1193-2.5 2.5s1.1192 2.5 2.5 2.5v-5Zm7.8333 7.8333c0-1.3807-1.1193-2.5-2.5-2.5s-2.5 1.1193-2.5 2.5h5Zm-5 4c0 1.3807 1.1193 2.5 2.5 2.5s2.5-1.1193 2.5-2.5h-5Zm-5.6667 0v-4h-5v4h5Zm0-4c0-1.5648 1.2685-2.8333 2.8334-2.8333v-5c-4.3263 0-7.8334 3.5071-7.8334 7.8333h5ZM30.0033 17.5c1.5648 0 2.8333 1.2685 2.8333 2.8333h5c0-4.3262-3.5071-7.8333-7.8333-7.8333v5Zm2.8333 2.8333v4h5v-4h-5Z" mask="url(#c)"/></g></g><defs><clipPath id="a"><path fill="#fff" d="M0 0h70v70H0z"/></clipPath><clipPath id="b"><path fill="#fff" d="M22 12h16v13H22z"/></clipPath></defs></svg>