<svg width="20" height="20" viewBox="0 0 20 20" fill="none" xmlns="http://www.w3.org/2000/svg">
<g clip-path="url(#clip0_631_15420)">
<path d="M10 19C14.9706 19 19 14.9706 19 10C19 5.02944 14.9706 1 10 1C5.02944 1 1 5.02944 1 10C1 14.9706 5.02944 19 10 19Z" stroke="#B1A3C7" stroke-width="2" stroke-linecap="round" stroke-linejoin="round"/>
<path d="M11 14.0013C10.9997 14.199 10.9409 14.3921 10.8309 14.5564C10.7209 14.7206 10.5648 14.8486 10.3821 14.9241C10.1994 14.9997 9.99845 15.0193 9.80459 14.9807C9.61073 14.9421 9.43267 14.8469 9.2929 14.7071C9.15312 14.5673 9.0579 14.3893 9.01928 14.1954C8.98065 14.0015 9.00035 13.8006 9.07588 13.6179C9.1514 13.4352 9.27937 13.279 9.44362 13.1691C9.60787 13.0591 9.80103 13.0003 9.9987 13C10.1302 12.9998 10.2605 13.0256 10.3821 13.0759C10.5036 13.1261 10.6141 13.1999 10.7071 13.2929C10.8001 13.3859 10.8739 13.4964 10.9241 13.6179C10.9744 13.7395 11.0002 13.8698 11 14.0013Z" fill="#B1A3C7"/>
<path d="M10 11V9.5C11.1046 9.5 12 8.60457 12 7.5C12 6.39543 11.1046 5.5 10 5.5C8.89543 5.5 8 6.39543 8 7.5" stroke="#B1A3C7" stroke-width="2" stroke-linecap="round" stroke-linejoin="round"/>
</g>
<defs>
<clipPath id="clip0_631_15420">
<rect width="20" height="20" fill="white"/>
</clipPath>
</defs>
</svg>
